<svg width="84" height="82" viewBox="0 0 84 82" fill="none" xmlns="http://www.w3.org/2000/svg">
<path d="M12.1391 39.3342C12.0758 39.2836 12.0441 39.2266 12.0441 39.1632C12.0441 39.0872 12.0568 39.0176 12.0821 38.9542C12.1201 38.8909 12.1581 38.8276 12.1961 38.7642C12.2468 38.7009 12.2911 38.6376 12.3291 38.5742C12.5445 38.2069 12.7661 37.8206 12.9941 37.4152C13.2221 36.9972 13.4311 36.6046 13.6211 36.2372C13.7605 35.9966 13.8935 35.7306 14.0201 35.4392C14.1468 35.1352 14.2671 34.8186 14.3811 34.4892C14.4318 34.3499 14.4761 34.1979 14.5141 34.0332C14.5648 33.8559 14.5965 33.6849 14.6091 33.5202C14.6218 33.3556 14.6028 33.2036 14.5521 33.0642C14.5015 32.9249 14.4065 32.8172 14.2671 32.7412C14.0011 32.7286 13.7478 32.7666 13.5071 32.8552C13.2665 32.9439 13.0385 33.0642 12.8231 33.2162C12.6078 33.3682 12.4051 33.5392 12.2151 33.7292C12.0251 33.9192 11.8478 34.1092 11.6831 34.2992C11.0118 35.0592 10.4228 35.9016 9.91612 36.8262C9.42212 37.7382 8.97879 38.7389 8.58612 39.8282C8.38346 40.3729 8.19346 40.9366 8.01612 41.5192C7.83879 42.1019 7.73112 42.6846 7.69312 43.2672C7.66779 43.5966 7.67412 43.9196 7.71212 44.2362C7.75012 44.5402 7.83246 44.8062 7.95912 45.0342C8.09846 45.2749 8.28846 45.4522 8.52912 45.5662C8.78246 45.6929 9.09912 45.7309 9.47912 45.6802C10.3278 45.4016 11.1005 45.0279 11.7971 44.5592C12.4938 44.0906 13.1525 43.5712 13.7731 43.0012C14.3938 42.4312 14.9955 41.8422 15.5781 41.2342C16.1608 40.6262 16.7625 40.0436 17.3831 39.4862C17.4465 39.4356 17.5161 39.3659 17.5921 39.2772C17.6808 39.1759 17.7821 39.1632 17.8961 39.2392C17.8708 39.4546 17.7631 39.6382 17.5731 39.7902C17.3831 39.9422 17.2121 40.0879 17.0601 40.2272C16.6041 40.6832 16.1355 41.1582 15.6541 41.6522C15.1855 42.1336 14.7231 42.6086 14.2671 43.0772C13.9631 43.3432 13.6401 43.6282 13.2981 43.9322C12.9688 44.2362 12.6205 44.5339 12.2531 44.8252C11.8858 45.1039 11.4995 45.3636 11.0941 45.6042C10.7015 45.8576 10.2961 46.0539 9.87812 46.1932C9.33346 46.3832 8.87112 46.4402 8.49112 46.3642C8.11112 46.2882 7.80079 46.1236 7.56012 45.8702C7.31946 45.6169 7.14212 45.2939 7.02812 44.9012C6.92679 44.4959 6.86979 44.0589 6.85712 43.5902C6.84446 43.1216 6.87612 42.6402 6.95212 42.1462C7.02812 41.6396 7.12946 41.1646 7.25612 40.7212C7.44612 40.0372 7.67412 39.3849 7.94012 38.7642C8.21879 38.1309 8.49112 37.5482 8.75712 37.0162C9.06112 36.4336 9.38412 35.8699 9.72612 35.3252C10.0681 34.7679 10.4418 34.2612 10.8471 33.8052C11.2651 33.3366 11.7085 32.9312 12.1771 32.5892C12.6585 32.2346 13.1778 31.9686 13.7351 31.7912C13.7605 31.7912 13.7795 31.7849 13.7921 31.7722C13.8048 31.7596 13.8238 31.7532 13.8491 31.7532C14.4445 31.7026 14.8688 31.8229 15.1221 32.1142C15.3881 32.3929 15.5465 32.7666 15.5971 33.2352C15.5591 33.7926 15.4641 34.3056 15.3121 34.7742C15.1601 35.2429 14.9701 35.6862 14.7421 36.1042C14.5268 36.5096 14.2861 36.9022 14.0201 37.2822C13.7668 37.6622 13.5198 38.0296 13.2791 38.3842C13.2031 38.4856 13.1271 38.5932 13.0511 38.7072C12.9878 38.8212 12.9118 38.9289 12.8231 39.0302C12.7345 39.1316 12.6331 39.2139 12.5191 39.2772C12.4178 39.3406 12.2911 39.3596 12.1391 39.3342ZM30.4786 36.3512C30.3519 36.3259 30.2506 36.2689 30.1746 36.1802C30.1112 36.0789 30.0479 35.9776 29.9846 35.8762C29.9339 35.7749 29.8706 35.6799 29.7946 35.5912C29.7186 35.5026 29.6172 35.4456 29.4906 35.4202C29.3132 35.3949 29.1612 35.4202 29.0346 35.4962C28.9079 35.5722 28.7622 35.6546 28.5976 35.7432C27.8502 36.4652 27.1726 37.3582 26.5646 38.4222C25.9566 39.4736 25.4309 40.6009 24.9876 41.8042C24.9369 41.9562 24.8799 42.1526 24.8166 42.3932C24.7532 42.6212 24.6772 42.8492 24.5886 43.0772C24.4999 43.2926 24.3922 43.4826 24.2656 43.6472C24.1389 43.7992 23.9932 43.8752 23.8286 43.8752C23.6006 43.8752 23.4612 43.7676 23.4106 43.5522C23.3599 43.3369 23.3472 43.0836 23.3726 42.7922C23.4106 42.4882 23.4676 42.1842 23.5436 41.8802C23.6322 41.5762 23.7019 41.3356 23.7526 41.1582C23.8539 40.5882 23.9616 40.0689 24.0756 39.6002C24.2022 39.1316 24.3289 38.6566 24.4556 38.1752C24.1896 38.5046 23.9046 38.8972 23.6006 39.3532C23.2966 39.7966 22.9736 40.2526 22.6316 40.7212C22.3022 41.1899 21.9476 41.6459 21.5676 42.0892C21.2002 42.5199 20.8202 42.8936 20.4276 43.2102C20.2756 43.3242 20.0919 43.4509 19.8766 43.5902C19.6739 43.7296 19.4522 43.8499 19.2116 43.9512C18.9836 44.0399 18.7366 44.1032 18.4706 44.1412C18.2172 44.1666 17.9702 44.1286 17.7296 44.0272C17.5142 43.9386 17.3369 43.7992 17.1976 43.6092C17.0709 43.4066 16.9822 43.1722 16.9316 42.9062C16.8682 42.6402 16.8492 42.3489 16.8746 42.0322C16.8872 41.7029 16.9379 41.3672 17.0266 41.0252C16.9632 40.9619 16.8999 40.8796 16.8366 40.7782C16.7732 40.6769 16.7226 40.5692 16.6846 40.4552C16.6466 40.3412 16.6402 40.2272 16.6656 40.1132C16.6782 39.9866 16.7416 39.8726 16.8556 39.7712C16.9569 39.7206 17.0456 39.7206 17.1216 39.7712C17.1976 39.8219 17.2672 39.8662 17.3306 39.9042C17.5079 39.5242 17.6916 39.1569 17.8816 38.8022C18.0716 38.4349 18.2806 38.0992 18.5086 37.7952C18.7492 37.4786 19.0089 37.1999 19.2876 36.9592C19.5662 36.7059 19.8892 36.5032 20.2566 36.3512C20.3452 36.3259 20.4402 36.3196 20.5416 36.3322C20.6429 36.3322 20.7442 36.3322 20.8456 36.3322C21.1116 36.4842 21.2699 36.7249 21.3206 37.0542C21.0546 38.1309 20.6239 38.9922 20.0286 39.6382C19.4332 40.2716 18.6986 40.7466 17.8246 41.0632C17.7232 41.5446 17.6726 42.0006 17.6726 42.4312C17.6852 42.8619 17.8436 43.1722 18.1476 43.3622C18.1729 43.3749 18.1982 43.3812 18.2236 43.3812C18.2616 43.3686 18.2806 43.3749 18.2806 43.4002C18.7746 43.3622 19.2052 43.2482 19.5726 43.0582C19.9526 42.8682 20.2946 42.6339 20.5986 42.3552C20.9026 42.0766 21.1876 41.7789 21.4536 41.4622C21.7196 41.1329 21.9919 40.8162 22.2706 40.5122C22.5999 40.0436 22.9229 39.5686 23.2396 39.0872C23.5689 38.5932 23.9046 38.0739 24.2466 37.5292C24.2846 37.4659 24.3289 37.3899 24.3796 37.3012C24.4429 37.1999 24.5062 37.1049 24.5696 37.0162C24.6329 36.9276 24.7026 36.8579 24.7786 36.8072C24.8546 36.7439 24.9369 36.7122 25.0256 36.7122C25.1776 36.7122 25.2726 36.7756 25.3106 36.9022C25.3612 37.0162 25.3802 37.1619 25.3676 37.3392C25.3676 37.5166 25.3422 37.7066 25.2916 37.9092C25.2536 38.0992 25.2219 38.2639 25.1966 38.4032C25.1332 38.7706 25.0699 39.1126 25.0066 39.4292C24.9559 39.7332 24.8989 40.0499 24.8356 40.3792C25.0382 40.0119 25.2472 39.6256 25.4626 39.2202C25.6906 38.8022 25.9249 38.3969 26.1656 38.0042C26.4062 37.5989 26.6596 37.2126 26.9256 36.8452C27.2042 36.4652 27.4956 36.1232 27.7996 35.8192C28.0402 35.5786 28.3189 35.3569 28.6356 35.1542C28.9522 34.9389 29.3196 34.8756 29.7376 34.9642C29.8262 35.0402 29.9276 35.1289 30.0416 35.2302C30.1556 35.3189 30.2506 35.4266 30.3266 35.5532C30.4152 35.6672 30.4722 35.7939 30.4976 35.9332C30.5356 36.0599 30.5292 36.1992 30.4786 36.3512ZM18.3186 39.7142C18.2932 39.7396 18.2869 39.7522 18.2996 39.7522C18.3122 39.7522 18.3186 39.7396 18.3186 39.7142C18.7872 39.4102 19.2116 39.0619 19.5916 38.6692C19.9842 38.2766 20.2819 37.7699 20.4846 37.1492C20.2186 37.2252 19.9779 37.3519 19.7626 37.5292C19.5599 37.6939 19.3699 37.8966 19.1926 38.1372C19.0152 38.3652 18.8569 38.6186 18.7176 38.8972C18.5782 39.1759 18.4452 39.4482 18.3186 39.7142ZM29.2344 41.1582C29.1204 41.5509 29.0887 41.9056 29.1394 42.2222C29.19 42.5262 29.2977 42.7732 29.4624 42.9632C29.6397 43.1532 29.8677 43.2862 30.1464 43.3622C30.4377 43.4256 30.7607 43.4066 31.1154 43.3052C31.584 43.1786 32.002 42.9632 32.3694 42.6592C32.7367 42.3426 33.066 42.0196 33.3574 41.6902C33.4587 41.5889 33.56 41.4686 33.6614 41.3292C33.7754 41.1899 33.9147 41.1456 34.0794 41.1962C34.1427 41.2976 34.1617 41.3926 34.1364 41.4812C34.1237 41.5699 34.0857 41.6586 34.0224 41.7472C33.959 41.8359 33.883 41.9182 33.7944 41.9942C33.7184 42.0702 33.6614 42.1399 33.6234 42.2032C33.37 42.5452 33.0407 42.8746 32.6354 43.1912C32.2427 43.5079 31.8184 43.7549 31.3624 43.9322C30.9064 44.0969 30.4504 44.1666 29.9944 44.1412C29.5384 44.1159 29.1267 43.9259 28.7594 43.5712C28.2907 43.1026 28.0754 42.4756 28.1134 41.6902C28.126 41.6142 28.1514 41.5319 28.1894 41.4432C28.2147 41.3546 28.221 41.2596 28.2084 41.1582C28.2084 41.0822 28.1957 41.0252 28.1704 40.9872C28.1324 40.9366 28.1007 40.8859 28.0754 40.8352C28.0374 40.7846 28.012 40.7276 27.9994 40.6642C27.974 40.6009 27.9677 40.5186 27.9804 40.4172C28.0057 40.2019 28.088 40.0499 28.2274 39.9612C28.3667 39.8726 28.525 39.7776 28.7024 39.6762C28.8417 39.3976 29.0064 39.0746 29.1964 38.7072C29.399 38.3399 29.6207 37.9852 29.8614 37.6432C30.1147 37.3012 30.387 37.0036 30.6784 36.7502C30.9824 36.4969 31.318 36.3512 31.6854 36.3132C32.0147 36.2752 32.2617 36.3386 32.4264 36.5032C32.591 36.6552 32.6924 36.8642 32.7304 37.1302C32.6417 37.6876 32.4834 38.1689 32.2554 38.5742C32.0274 38.9796 31.755 39.3406 31.4384 39.6572C31.1344 39.9739 30.786 40.2526 30.3934 40.4932C30.0134 40.7212 29.627 40.9429 29.2344 41.1582ZM31.3434 37.1682C31.1407 37.3076 30.9507 37.4976 30.7734 37.7382C30.596 37.9662 30.4314 38.2132 30.2794 38.4792C30.14 38.7452 30.007 39.0176 29.8804 39.2962C29.7664 39.5749 29.6587 39.8282 29.5574 40.0562C29.798 39.9042 30.0704 39.7332 30.3744 39.5432C30.6784 39.3406 30.957 39.1189 31.2104 38.8782C31.4637 38.6249 31.6727 38.3462 31.8374 38.0422C32.002 37.7256 32.0717 37.3836 32.0464 37.0162C31.907 36.9656 31.7804 36.9656 31.6664 37.0162C31.5524 37.0542 31.4447 37.1049 31.3434 37.1682ZM40.0173 35.2872C40.1187 35.5279 40.1693 35.7939 40.1693 36.0852C40.182 36.3639 40.163 36.6552 40.1123 36.9592C40.0743 37.2506 40.0173 37.5482 39.9413 37.8522C39.8653 38.1562 39.802 38.4476 39.7513 38.7262C39.6247 39.3342 39.5043 39.9359 39.3903 40.5312C39.2763 41.1139 39.1877 41.7092 39.1243 42.3172C39.517 41.9372 39.8653 41.4622 40.1693 40.8922C40.486 40.3222 40.809 39.7776 41.1383 39.2582C41.2397 39.0936 41.36 38.9289 41.4993 38.7642C41.6387 38.5996 41.816 38.5046 42.0313 38.4792C42.1833 38.5046 42.291 38.5616 42.3543 38.6502C42.4303 38.7389 42.481 38.8466 42.5063 38.9732C42.5317 39.0999 42.5443 39.2329 42.5443 39.3722C42.557 39.5116 42.5697 39.6446 42.5823 39.7712C42.6203 40.1639 42.6583 40.5692 42.6963 40.9872C42.747 41.4052 42.8103 41.8106 42.8863 42.2032C42.975 42.5832 43.089 42.9379 43.2283 43.2672C43.3803 43.5839 43.5703 43.8499 43.7983 44.0652C43.9377 44.0652 44.058 44.0399 44.1593 43.9892C44.2733 43.9259 44.3747 43.9512 44.4633 44.0652C44.4633 44.2426 44.4127 44.3756 44.3113 44.4642C44.21 44.5529 44.0833 44.6099 43.9313 44.6352C43.7793 44.6479 43.6273 44.6352 43.4753 44.5972C43.3233 44.5466 43.203 44.4832 43.1143 44.4072C42.8737 44.1919 42.671 43.8942 42.5063 43.5142C42.3417 43.1216 42.2087 42.6909 42.1073 42.2222C42.006 41.7536 41.93 41.2722 41.8793 40.7782C41.8413 40.2842 41.816 39.8219 41.8033 39.3912C41.5373 39.6826 41.2967 40.0056 41.0813 40.3602C40.8787 40.7022 40.6697 41.0506 40.4543 41.4052C40.353 41.5699 40.2517 41.7472 40.1503 41.9372C40.049 42.1146 39.9413 42.2919 39.8273 42.4692C39.7133 42.6339 39.5803 42.7859 39.4283 42.9252C39.2763 43.0519 39.099 43.1469 38.8963 43.2102C38.6303 43.1722 38.472 43.0329 38.4213 42.7922C38.3833 42.5516 38.3707 42.2982 38.3833 42.0322C38.4087 41.5509 38.4657 41.0632 38.5543 40.5692C38.6557 40.0626 38.7633 39.5622 38.8773 39.0682C38.9913 38.5616 39.1053 38.0612 39.2193 37.5672C39.3333 37.0732 39.422 36.5982 39.4853 36.1422C39.08 36.6742 38.7 37.2442 38.3453 37.8522C38.0033 38.4476 37.6677 39.0619 37.3383 39.6952C37.0217 40.3159 36.705 40.9556 36.3883 41.6142C36.0843 42.2602 35.7677 42.8936 35.4383 43.5142C35.3243 43.7042 35.2167 43.9132 35.1153 44.1412C35.0267 44.3692 34.9253 44.5909 34.8113 44.8062C34.71 45.0089 34.5897 45.1926 34.4503 45.3572C34.311 45.5219 34.14 45.6486 33.9373 45.7372C33.722 45.6992 33.5827 45.5979 33.5193 45.4332C33.4433 45.2812 33.4117 45.1039 33.4243 44.9012C33.4243 44.6986 33.456 44.4832 33.5193 44.2552C33.57 44.0272 33.6143 43.8182 33.6523 43.6282C33.8677 42.8302 34.0957 42.0766 34.3363 41.3672C34.5643 40.6579 34.8367 39.9296 35.1533 39.1822C35.242 38.9796 35.3497 38.7389 35.4763 38.4602C35.6157 38.1816 35.7613 37.9536 35.9133 37.7762C36.0653 37.5989 36.2237 37.5039 36.3883 37.4912C36.5657 37.4659 36.7367 37.6052 36.9013 37.9092C36.724 38.4032 36.534 38.8846 36.3313 39.3532C36.1287 39.8219 35.926 40.2969 35.7233 40.7782C35.5333 41.2469 35.3433 41.7282 35.1533 42.2222C34.976 42.7036 34.8177 43.2102 34.6783 43.7422C35.2863 42.6782 35.8563 41.5826 36.3883 40.4552C36.933 39.3279 37.5157 38.2322 38.1363 37.1682C38.339 36.8262 38.548 36.4842 38.7633 36.1422C38.9787 35.8002 39.232 35.5026 39.5233 35.2492C39.7007 35.1986 39.8653 35.2112 40.0173 35.2872ZM51.4794 41.5002H51.4414C51.4414 41.5509 51.4477 41.5762 51.4604 41.5762C51.473 41.5636 51.4794 41.5382 51.4794 41.5002C51.8214 40.9176 52.1634 40.3349 52.5054 39.7522C52.8474 39.1696 53.221 38.5932 53.6264 38.0232C53.7657 37.8459 53.9114 37.6559 54.0634 37.4532C54.228 37.2379 54.418 37.1302 54.6334 37.1302C54.8487 37.1429 54.988 37.2759 55.0514 37.5292C55.1147 37.7699 55.1337 38.0612 55.1084 38.4032C55.0957 38.7326 55.0577 39.0682 54.9944 39.4102C54.9437 39.7522 54.912 40.0182 54.8994 40.2082C54.8487 40.6642 54.817 41.1456 54.8044 41.6522C54.7917 42.1462 54.798 42.6149 54.8234 43.0582C54.836 43.2736 54.855 43.4952 54.8804 43.7232C54.9184 43.9386 54.9627 44.1412 55.0134 44.3312C55.064 44.5212 55.1337 44.6922 55.2224 44.8442C55.3237 44.9836 55.4504 45.0912 55.6024 45.1672C55.7164 45.1926 55.8114 45.1799 55.8874 45.1292C55.976 45.0912 56.052 45.0469 56.1154 44.9962C56.1787 44.9582 56.242 44.9266 56.3054 44.9012C56.3814 44.8759 56.4637 44.8949 56.5524 44.9582C56.5524 45.1102 56.508 45.2369 56.4194 45.3382C56.3307 45.4396 56.2167 45.5156 56.0774 45.5662C55.9507 45.6296 55.805 45.6676 55.6404 45.6802C55.4884 45.6929 55.349 45.6739 55.2224 45.6232C55.007 45.5472 54.8297 45.3952 54.6904 45.1672C54.551 44.9392 54.437 44.6796 54.3484 44.3882C54.2724 44.0842 54.2154 43.7612 54.1774 43.4192C54.1394 43.0646 54.114 42.7226 54.1014 42.3932C54.0887 42.0132 54.095 41.6269 54.1204 41.2342C54.1584 40.8289 54.1964 40.4362 54.2344 40.0562C54.285 39.6636 54.3294 39.2899 54.3674 38.9352C54.418 38.5679 54.4497 38.2259 54.4624 37.9092C53.905 38.5299 53.392 39.2646 52.9234 40.1132C52.4547 40.9492 52.005 41.7726 51.5744 42.5832C51.511 42.7099 51.4414 42.8492 51.3654 43.0012C51.302 43.1532 51.226 43.2989 51.1374 43.4382C51.0487 43.5776 50.9474 43.7042 50.8334 43.8182C50.732 43.9196 50.6054 43.9892 50.4534 44.0272C50.3014 43.9766 50.2064 43.8879 50.1684 43.7612C50.1304 43.6219 50.1177 43.4762 50.1304 43.3242C50.1557 43.1596 50.1937 43.0012 50.2444 42.8492C50.3077 42.6846 50.3584 42.5452 50.3964 42.4312C50.675 41.5192 50.9727 40.6452 51.2894 39.8092C51.6187 38.9732 51.9354 38.1562 52.2394 37.3582C51.9987 37.5482 51.7454 37.7509 51.4794 37.9662C51.2134 38.1816 50.9284 38.3779 50.6244 38.5552C50.3204 38.7326 49.991 38.8909 49.6364 39.0302C49.2817 39.1569 48.8954 39.2392 48.4774 39.2772C48.5154 39.7079 48.5217 40.1512 48.4964 40.6072C48.4837 41.0632 48.4204 41.5002 48.3064 41.9182C48.205 42.3236 48.053 42.6972 47.8504 43.0392C47.6604 43.3686 47.4134 43.6219 47.1094 43.7992C46.9447 43.9006 46.742 43.9702 46.5014 44.0082C46.2734 44.0336 46.0707 44.0019 45.8934 43.9132C45.564 43.7612 45.355 43.4952 45.2664 43.1152C45.165 42.7352 45.146 42.3109 45.2094 41.8422C45.26 41.3736 45.355 40.9112 45.4944 40.4552C45.6464 39.9866 45.792 39.5939 45.9314 39.2772C45.9947 39.1252 46.077 38.9416 46.1784 38.7262C46.2924 38.5109 46.419 38.3019 46.5584 38.0992C46.7104 37.8966 46.875 37.7256 47.0524 37.5862C47.2424 37.4469 47.445 37.3836 47.6604 37.3962C47.8377 37.4089 47.958 37.4722 48.0214 37.5862C48.0847 37.7002 48.1227 37.8332 48.1354 37.9852C48.1607 38.1372 48.1797 38.2956 48.1924 38.4602C48.2177 38.6249 48.2747 38.7642 48.3634 38.8782C48.8067 38.8656 49.1994 38.8086 49.5414 38.7072C49.896 38.5932 50.219 38.4539 50.5104 38.2892C50.8017 38.1119 51.074 37.9219 51.3274 37.7192C51.5807 37.5039 51.8277 37.2822 52.0684 37.0542C52.1444 36.9782 52.214 36.8959 52.2774 36.8072C52.3407 36.7059 52.404 36.6109 52.4674 36.5222C52.5307 36.4209 52.6067 36.3386 52.6954 36.2752C52.784 36.1992 52.898 36.1549 53.0374 36.1422C53.1007 36.2309 53.1324 36.3259 53.1324 36.4272C53.145 36.5286 53.1387 36.6362 53.1134 36.7502C53.088 36.8642 53.05 36.9782 52.9994 37.0922C52.9614 37.1936 52.9234 37.2949 52.8854 37.3962C52.6447 38.0549 52.404 38.7262 52.1634 39.4102C51.9354 40.0816 51.7137 40.7466 51.4984 41.4052C51.4984 41.4179 51.492 41.4306 51.4794 41.4432C51.4794 41.4559 51.4794 41.4749 51.4794 41.5002ZM46.1404 42.3172C46.153 42.4946 46.1847 42.6782 46.2354 42.8682C46.286 43.0456 46.3747 43.1469 46.5014 43.1722C46.5647 43.1849 46.6344 43.1722 46.7104 43.1342C46.799 43.0962 46.8814 43.0519 46.9574 43.0012C47.0334 42.9379 47.103 42.8809 47.1664 42.8302C47.2297 42.7669 47.274 42.7226 47.2994 42.6972C47.4514 42.5199 47.578 42.2856 47.6794 41.9942C47.7807 41.7029 47.8567 41.3926 47.9074 41.0632C47.958 40.7212 47.9834 40.3856 47.9834 40.0562C47.9834 39.7269 47.9454 39.4419 47.8694 39.2012C47.768 39.3026 47.7174 39.4039 47.7174 39.5052C47.7174 39.5939 47.6477 39.6446 47.5084 39.6572C47.3944 39.6699 47.3184 39.6509 47.2804 39.6002C47.255 39.5369 47.2424 39.4672 47.2424 39.3912C47.2424 39.3026 47.2424 39.2139 47.2424 39.1252C47.255 39.0239 47.2487 38.9416 47.2234 38.8782C47.1094 39.0936 46.989 39.3406 46.8624 39.6192C46.7357 39.8852 46.6154 40.1639 46.5014 40.4552C46.4 40.7466 46.3114 41.0506 46.2354 41.3672C46.172 41.6839 46.1404 42.0006 46.1404 42.3172Z" fill="#A166E6"/>
<path d="M69.1684 33.4252C69.029 33.5646 68.8644 33.6026 68.6744 33.5392C68.497 33.4759 68.3197 33.4379 68.1424 33.4252C67.775 33.3999 67.395 33.3999 67.0024 33.4252C66.6097 33.4506 66.2107 33.4886 65.8054 33.5392C65.4127 33.5899 65.02 33.6532 64.6274 33.7292C64.2347 33.8052 63.8484 33.8749 63.4684 33.9382C62.8984 34.0396 62.341 34.1409 61.7964 34.2422C61.2644 34.3309 60.7007 34.4322 60.1054 34.5462C60.0294 34.5589 59.947 34.5779 59.8584 34.6032C59.7697 34.6159 59.6874 34.6159 59.6114 34.6032C59.5354 34.5906 59.4657 34.5652 59.4024 34.5272C59.339 34.4766 59.301 34.3942 59.2884 34.2802C59.3264 34.1029 59.4024 33.9699 59.5164 33.8812C59.6304 33.7926 59.7634 33.7292 59.9154 33.6912C60.0674 33.6406 60.2257 33.6089 60.3904 33.5962C60.5677 33.5836 60.7324 33.5646 60.8844 33.5392C61.809 33.3746 62.7907 33.2352 63.8294 33.1212C64.8807 33.0072 65.913 32.9249 66.9264 32.8742C67.0657 32.8616 67.2557 32.8552 67.4964 32.8552C67.7497 32.8426 67.9967 32.8552 68.2374 32.8932C68.478 32.9186 68.687 32.9756 68.8644 33.0642C69.0544 33.1402 69.1557 33.2606 69.1684 33.4252ZM65.3494 34.4322C65.3494 34.4956 65.3684 34.5462 65.4064 34.5842C65.381 34.8882 65.2924 35.1606 65.1404 35.4012C65.001 35.6419 64.8617 35.8699 64.7224 36.0852C64.583 36.3132 64.4564 36.5476 64.3424 36.7882C64.241 37.0162 64.108 37.2442 63.9434 37.4722C63.88 37.5356 63.804 37.5609 63.7154 37.5482C63.6394 37.5229 63.576 37.5229 63.5254 37.5482C62.8794 38.6629 62.2714 39.8029 61.7014 40.9682C61.1314 42.1336 60.6374 43.4002 60.2194 44.7682C60.4854 44.7302 60.7704 44.6859 61.0744 44.6352C61.391 44.5846 61.714 44.5402 62.0434 44.5022C62.3854 44.4642 62.721 44.4389 63.0504 44.4262C63.3924 44.4009 63.7217 44.4009 64.0384 44.4262C64.1524 44.4389 64.2727 44.4516 64.3994 44.4642C64.5387 44.4769 64.6654 44.5086 64.7794 44.5592C64.8934 44.5972 64.9884 44.6542 65.0644 44.7302C65.153 44.7936 65.21 44.8886 65.2354 45.0152C65.1974 45.1292 65.134 45.2052 65.0454 45.2432C64.9694 45.2812 64.8807 45.2939 64.7794 45.2812C64.678 45.2686 64.5767 45.2432 64.4754 45.2052C64.374 45.1799 64.279 45.1672 64.1904 45.1672C63.8484 45.1419 63.4937 45.1419 63.1264 45.1672C62.759 45.2052 62.3917 45.2559 62.0244 45.3192C61.6697 45.3826 61.3214 45.4522 60.9794 45.5282C60.6374 45.6042 60.3207 45.6676 60.0294 45.7182C59.9787 45.8069 59.9344 45.9019 59.8964 46.0032C59.8584 46.1172 59.7887 46.1869 59.6874 46.2122C59.586 46.1996 59.5164 46.1552 59.4784 46.0792C59.4404 46.0159 59.4087 45.9462 59.3834 45.8702C59.1807 45.9336 58.94 46.0032 58.6614 46.0792C58.3827 46.1679 58.0914 46.2629 57.7874 46.3642C57.61 46.4276 57.401 46.5036 57.1604 46.5922C56.907 46.6809 56.679 46.7379 56.4764 46.7632C56.261 46.8012 56.09 46.7759 55.9634 46.6872C55.8367 46.5986 55.7924 46.4022 55.8304 46.0982C55.8557 46.0729 55.881 46.0476 55.9064 46.0222C55.9317 45.9969 55.9507 45.9589 55.9634 45.9082C56.546 45.7056 57.1287 45.5219 57.7114 45.3572C58.3067 45.1926 58.9274 45.0469 59.5734 44.9202C60.042 43.1722 60.6184 41.4939 61.3024 39.8852C61.999 38.2766 62.8034 36.7882 63.7154 35.4202C63.8547 35.2049 64.0004 34.9959 64.1524 34.7932C64.3044 34.5779 64.469 34.4196 64.6464 34.3182C64.6717 34.2929 64.716 34.2676 64.7794 34.2422C64.9314 34.2169 65.0454 34.2296 65.1214 34.2802C65.21 34.3182 65.286 34.3689 65.3494 34.4322ZM75.7333 39.4482C76.2273 39.3722 76.734 39.2899 77.2533 39.2012C77.7853 39.0999 78.292 38.9986 78.7733 38.8972C78.9126 38.8592 79.071 38.8212 79.2483 38.7832C79.4383 38.7326 79.5903 38.7579 79.7043 38.8592C79.6663 39.0492 79.546 39.1632 79.3433 39.2012C79.1406 39.2266 78.9633 39.2582 78.8113 39.2962C78.33 39.4356 77.8043 39.5622 77.2343 39.6762C76.6643 39.7902 76.1196 39.8979 75.6003 39.9992C75.537 40.4426 75.4673 40.9112 75.3913 41.4052C75.3153 41.8992 75.2393 42.3996 75.1633 42.9062C75.1 43.4002 75.0303 43.8942 74.9543 44.3882C74.891 44.8822 74.8403 45.3572 74.8023 45.8132C74.7896 45.9652 74.796 46.1172 74.8213 46.2692C74.8466 46.4212 74.8593 46.5732 74.8593 46.7252C74.872 46.8772 74.8656 47.0166 74.8403 47.1432C74.815 47.2826 74.7453 47.3966 74.6313 47.4852C74.4793 47.4472 74.3716 47.3522 74.3083 47.2002C74.2576 47.0609 74.226 46.8962 74.2133 46.7062C74.2006 46.5162 74.2006 46.3136 74.2133 46.0982C74.2386 45.8956 74.2576 45.7056 74.2703 45.5282C74.3336 44.6289 74.416 43.7296 74.5173 42.8302C74.6313 41.9309 74.739 41.0506 74.8403 40.1892C74.1563 40.2906 73.4533 40.4299 72.7313 40.6072C72.0093 40.7719 71.3063 40.9429 70.6223 41.1202C70.2676 41.7536 69.9193 42.3932 69.5773 43.0392C69.248 43.6852 68.8996 44.3566 68.5323 45.0532C68.4816 45.1292 68.431 45.2242 68.3803 45.3382C68.3296 45.4649 68.2663 45.5852 68.1903 45.6992C68.127 45.8132 68.051 45.9082 67.9623 45.9842C67.8736 46.0729 67.7723 46.1172 67.6583 46.1172C67.4303 46.1299 67.2846 46.0792 67.2213 45.9652C67.1706 45.8512 67.1643 45.7056 67.2023 45.5282C67.2403 45.3636 67.3036 45.1862 67.3923 44.9962C67.481 44.8189 67.557 44.6732 67.6203 44.5592C67.8863 44.0399 68.165 43.5079 68.4563 42.9632C68.7476 42.4186 69.0136 41.9119 69.2543 41.4432C69.191 41.4559 69.1403 41.4686 69.1023 41.4812C69.0643 41.4939 69.0136 41.5066 68.9503 41.5192C68.887 41.5699 68.8553 41.6396 68.8553 41.7282C68.868 41.8169 68.8236 41.8866 68.7223 41.9372C68.5576 41.9372 68.3613 41.9562 68.1333 41.9942C67.9053 42.0322 67.6773 42.0639 67.4493 42.0892C67.234 42.1019 67.0376 42.0892 66.8603 42.0512C66.683 42.0132 66.569 41.9119 66.5183 41.7472C66.5436 41.5952 66.607 41.4749 66.7083 41.3862C66.8096 41.2976 66.9236 41.2342 67.0503 41.1962C67.1896 41.1456 67.3353 41.1076 67.4873 41.0822C67.6393 41.0569 67.785 41.0316 67.9243 41.0062C68.2156 40.9429 68.5133 40.8796 68.8173 40.8162C69.1213 40.7402 69.4 40.6769 69.6533 40.6262C70.1093 39.8282 70.5526 39.0239 70.9833 38.2132C71.414 37.4026 71.8636 36.6046 72.3323 35.8192C72.307 35.7939 72.2563 35.7876 72.1803 35.8002C72.1043 35.8129 72.0663 35.7812 72.0663 35.7052C72.0916 35.5152 72.174 35.3316 72.3133 35.1542C72.4526 34.9642 72.611 34.7806 72.7883 34.6032C72.877 34.5019 72.9656 34.3879 73.0543 34.2612C73.143 34.1346 73.238 34.0269 73.3393 33.9382C73.4533 33.8369 73.5736 33.7672 73.7003 33.7292C73.827 33.6912 73.9663 33.6976 74.1183 33.7482C74.2703 33.6089 74.416 33.4442 74.5553 33.2542C74.7073 33.0516 74.8656 32.8742 75.0303 32.7222C75.2076 32.5576 75.3976 32.4372 75.6003 32.3612C75.803 32.2852 76.0373 32.2916 76.3033 32.3802C76.4046 32.5196 76.4743 32.6716 76.5123 32.8362C76.563 33.0009 76.5883 33.1909 76.5883 33.4062C76.5883 33.9002 76.5503 34.4069 76.4743 34.9262C76.411 35.4456 76.3286 35.9649 76.2273 36.4842C76.1386 36.9909 76.0436 37.4976 75.9423 38.0042C75.8536 38.4982 75.784 38.9796 75.7333 39.4482ZM75.8093 33.0452C75.784 33.0452 75.765 33.0389 75.7523 33.0262C75.7523 33.0136 75.746 33.0072 75.7333 33.0072C75.2013 33.4632 74.7263 33.9889 74.3083 34.5842C73.903 35.1669 73.5166 35.7812 73.1493 36.4272C72.782 37.0606 72.4273 37.7129 72.0853 38.3842C71.7433 39.0556 71.3823 39.7079 71.0023 40.3412C71.6863 40.2272 72.3513 40.1132 72.9973 39.9992C73.6433 39.8726 74.2893 39.7396 74.9353 39.6002C74.986 39.0429 75.0556 38.4982 75.1443 37.9662C75.2456 37.4216 75.3406 36.8832 75.4293 36.3512C75.5306 35.8066 75.613 35.2619 75.6763 34.7172C75.7523 34.1726 75.7966 33.6152 75.8093 33.0452Z" fill="#BD9A47"/>
<path d="M68.2419 66.6161L73.8727 63.4711V50.8661" stroke="#BD9A47" stroke-width="2.25" stroke-miterlimit="10"/>
<path d="M74.1782 60.5004C74.1782 60.5004 74.4984 58.7642 77.1776 58.1487C79.8531 57.5368 80.4236 56.0853 81.454 54.3028C82.4845 52.5204 83.3751 52.709 83.3751 52.709C83.3751 52.709 71.3003 50.617 74.1782 60.5004Z" fill="#EAE5E1"/>
<path d="M73.5525 61.7598C73.5525 61.7598 74.1561 60.4862 76.3384 60.5289C78.5171 60.5716 79.2532 59.5683 80.4124 58.3942C81.568 57.2238 82.2157 57.5368 82.2157 57.5368C82.2157 57.5368 73.3685 53.6198 73.5562 61.7598H73.5525Z" fill="#BA8721"/>
<path d="M73.398 63.1864C73.398 63.1864 73.5121 61.1941 70.7299 59.8422C67.9513 58.4938 67.7121 56.7505 67.057 54.5305C66.4019 52.3105 65.3751 52.2927 65.3751 52.2927C65.3751 52.2927 79.2349 53.0327 73.398 63.1864Z" fill="#CAAA92"/>
<path d="M15.5083 14.8661L9.87756 18.0111V30.6161" stroke="#BD9A47" stroke-width="2.25" stroke-miterlimit="10"/>
<path d="M9.57203 20.9818C9.57203 20.9818 9.25184 22.718 6.57264 23.3335C3.89711 23.9454 3.32668 25.3969 2.29622 27.1793C1.26576 28.9618 0.375146 28.7732 0.375146 28.7732C0.375146 28.7732 12.45 30.8651 9.57203 20.9818Z" fill="#EAE5E1"/>
<path d="M10.1978 19.7223C10.1978 19.7223 9.59419 20.996 7.41182 20.9533C5.23313 20.9106 4.49708 21.9139 3.33781 23.0879C2.18222 24.2584 1.5345 23.9453 1.5345 23.9453C1.5345 23.9453 10.3818 27.8624 10.1941 19.7223H10.1978Z" fill="#BA8721"/>
<path d="M10.3522 18.2957C10.3522 18.2957 10.2381 20.2881 13.0204 21.64C15.799 22.9884 16.0382 24.7316 16.6933 26.9517C17.3483 29.1717 18.3751 29.1895 18.3751 29.1895C18.3751 29.1895 4.51539 28.4495 10.3522 18.2957Z" fill="#CAAA92"/>
<path d="M29.9383 80.5127L6.50671 66.985" stroke="#A166E6" stroke-width="1.41282" stroke-miterlimit="10"/>
<path d="M0.375122 55.8661L19.2363 66.7589L29.9101 72.9188L43.7346 80.9013L64.9551 68.6521" stroke="#A166E6" stroke-width="1.5" stroke-miterlimit="10"/>
<path d="M35.431 75.0635C36.4505 75.2433 37.5585 75.3558 38.7328 75.3506C37.5598 75.3556 36.452 75.2439 35.431 75.0635ZM45.6224 73.8926C43.2049 74.9475 40.8684 75.3402 38.7435 75.3506C40.8667 75.3398 43.204 74.9463 45.6215 73.8906L45.6224 73.8926ZM33.0511 74.4902C33.3689 74.5876 33.701 74.6825 34.0472 74.7695C34.0447 74.7689 34.042 74.7682 34.0394 74.7676C33.6961 74.6811 33.3666 74.5869 33.0511 74.4902ZM32.9213 74.4512C32.8897 74.4413 32.8588 74.4299 32.8275 74.4199C32.8588 74.4299 32.8897 74.4413 32.9213 74.4512ZM31.9174 74.1064C31.7675 74.0508 31.6221 73.9953 31.4818 73.9395C31.6221 73.9953 31.7675 74.0507 31.9174 74.1064ZM31.4652 73.9326C31.4193 73.9143 31.3743 73.8952 31.3295 73.877C31.3743 73.8952 31.4193 73.9143 31.4652 73.9326ZM30.639 73.582C30.558 73.5454 30.4798 73.5083 30.4037 73.4727C30.4797 73.5083 30.558 73.5453 30.639 73.582ZM29.2533 72.8809C29.4956 73.0188 29.8441 73.2062 30.2855 73.417C30.281 73.4149 30.2763 73.4133 30.2719 73.4111C29.8204 73.1953 29.4662 73.0038 29.224 72.8652C29.1978 72.8502 29.1734 72.835 29.1498 72.8213V72.8203C29.1819 72.839 29.2161 72.8597 29.2533 72.8809Z" fill="#E2AB2C" stroke="#A166E6" stroke-width="0.70641"/>
<path d="M33.3696 71.9192C33.27 71.9448 33.1709 71.9678 33.0728 71.9895C33.1708 71.9672 33.2701 71.9454 33.3696 71.9192ZM35.7671 70.9514C34.98 71.384 34.2248 71.6851 33.5063 71.8821C34.2241 71.6816 34.9784 71.3789 35.7642 70.9465L35.7671 70.9514Z" fill="#E2AB2C" stroke="#A166E6" stroke-width="0.70641"/>
<path d="M43.8194 73.9149C43.7275 72.7422 44.6035 71.7109 45.7832 71.619C46.9558 71.5272 47.9872 72.4031 48.079 73.5829C48.1708 74.7555 47.2949 75.7869 46.1152 75.8787C44.9425 75.9705 43.9112 75.0946 43.8194 73.9149Z" fill="#EFE2FF"/>
<path d="M34.3605 70.9127C34.2687 69.74 35.1446 68.7087 36.3243 68.6168C37.504 68.525 38.5283 69.401 38.6201 70.5807C38.712 71.7533 37.836 72.7847 36.6563 72.8765C35.4837 72.9683 34.4523 72.0924 34.3605 70.9127Z" fill="#EFE2FF"/>
<path d="M44.5353 69.59C43.708 70.7832 42.6733 71.7132 41.4454 72.3741C39.6846 73.322 37.5057 73.7324 34.9425 73.5558C32.0658 73.3573 29.5324 72.4904 28.3878 72.047C28.7663 72.1916 29.3015 72.3837 29.9523 72.5822C31.2582 72.9803 33.038 73.4078 34.9552 73.5333C36.871 73.6587 38.9449 73.484 40.8234 72.6573C42.2287 72.0389 43.5128 71.0589 44.5353 69.59ZM44.7579 69.254C44.712 69.3264 44.6647 69.3973 44.6173 69.4679C44.6647 69.3976 44.7118 69.3265 44.7579 69.254ZM44.9738 68.8995C44.9405 68.9568 44.9063 69.0132 44.8722 69.0695C44.9063 69.0134 44.9404 68.9569 44.9738 68.8995ZM45.1613 68.5626C45.1417 68.5992 45.1225 68.6358 45.1027 68.672C45.1225 68.6359 45.1417 68.5992 45.1613 68.5626Z" fill="#E2AB2C" stroke="#A166E6" stroke-width="0.70641"/>
<path d="M43.339 67.8044C43.2472 66.6247 44.1231 65.6004 45.3028 65.5086C46.4755 65.4167 47.5068 66.2927 47.5987 67.4724C47.6905 68.645 46.8145 69.6764 45.6419 69.7682C44.4622 69.86 43.4379 68.9841 43.3461 67.8115L43.339 67.8044Z" fill="#EFE2FF"/>
<path d="M53.8119 1.2546L77.2435 14.7823" stroke="#A166E6" stroke-width="1.41282" stroke-miterlimit="10"/>
<path d="M83.3751 25.9012L64.514 15.0084L53.8401 8.8485L40.0157 0.866073L18.7951 13.1152" stroke="#A166E6" stroke-width="1.5" stroke-miterlimit="10"/>
<path d="M48.3192 6.70386C47.2997 6.52404 46.1917 6.4115 45.0175 6.41675C46.1904 6.41175 47.2982 6.52348 48.3192 6.70386ZM38.1278 7.87476C40.5453 6.81979 42.8819 6.42709 45.0067 6.41675C42.8835 6.42752 40.5463 6.82105 38.1288 7.87671L38.1278 7.87476ZM50.6991 7.2771C50.3814 7.17969 50.0492 7.08487 49.703 6.9978C49.7055 6.99844 49.7083 6.99912 49.7108 6.99976C50.0541 7.08627 50.3836 7.1804 50.6991 7.2771ZM50.829 7.31616C50.8605 7.32606 50.8915 7.33744 50.9227 7.34741C50.8915 7.33744 50.8605 7.32607 50.829 7.31616ZM51.8329 7.66089C51.9827 7.71658 52.1281 7.77205 52.2684 7.82788C52.1282 7.77204 51.9828 7.71662 51.8329 7.66089ZM52.285 7.83472C52.3309 7.85302 52.3759 7.87212 52.4208 7.89038C52.376 7.87211 52.3309 7.85303 52.285 7.83472ZM53.1112 8.1853C53.1923 8.22195 53.2705 8.25902 53.3466 8.29468C53.2705 8.25901 53.1923 8.222 53.1112 8.1853ZM54.4969 8.88647C54.2547 8.74858 53.9061 8.56117 53.4647 8.35034C53.4692 8.35248 53.4739 8.35407 53.4784 8.3562C53.9298 8.57204 54.284 8.76358 54.5262 8.9021C54.5525 8.9171 54.5769 8.93233 54.6005 8.94604V8.94702C54.5683 8.92832 54.5341 8.90762 54.4969 8.88647Z" fill="#E2AB2C" stroke="#A166E6" stroke-width="0.70641"/>
<path d="M50.3806 9.84814C50.4803 9.82248 50.5793 9.79958 50.6775 9.77783C50.5794 9.80012 50.4801 9.82198 50.3806 9.84814ZM47.9832 10.8159C48.7702 10.3833 49.5254 10.0822 50.2439 9.88525C49.5262 10.0857 48.7718 10.3885 47.9861 10.8208L47.9832 10.8159Z" fill="#E2AB2C" stroke="#A166E6" stroke-width="0.70641"/>
<path d="M39.9309 7.85247C40.0227 9.02511 39.1468 10.0565 37.9671 10.1483C36.7944 10.2401 35.7631 9.36418 35.6712 8.18448C35.5794 7.01184 36.4554 5.98048 37.6351 5.88865C38.8077 5.79681 39.8391 6.67276 39.9309 7.85247Z" fill="#EFE2FF"/>
<path d="M49.3898 10.8547C49.4816 12.0273 48.6056 13.0587 47.4259 13.1505C46.2462 13.2423 45.2219 12.3664 45.1301 11.1867C45.0383 10.014 45.9142 8.98268 47.0939 8.89084C48.2666 8.79901 49.2979 9.67496 49.3898 10.8547Z" fill="#EFE2FF"/>
<path d="M39.215 12.1774C40.0423 10.9842 41.0769 10.0542 42.3048 9.39319C44.0656 8.44534 46.2445 8.03489 48.8077 8.21155C51.6845 8.41001 54.2178 9.2769 55.3624 9.72034C54.9839 9.57569 54.4488 9.3836 53.798 9.18518C52.4921 8.78702 50.7123 8.35957 48.795 8.23401C46.8793 8.1086 44.8053 8.28332 42.9269 9.10999C41.5215 9.72848 40.2375 10.7084 39.215 12.1774ZM38.9923 12.5133C39.0383 12.441 39.0856 12.37 39.1329 12.2994C39.0856 12.3697 39.0385 12.4408 38.9923 12.5133ZM38.7765 12.8678C38.8097 12.8105 38.844 12.7541 38.8781 12.6979C38.844 12.754 38.8099 12.8104 38.7765 12.8678ZM38.589 13.2047C38.6085 13.1681 38.6277 13.1315 38.6476 13.0953C38.6277 13.1315 38.6086 13.1681 38.589 13.2047Z" fill="#E2AB2C" stroke="#A166E6" stroke-width="0.70641"/>
<path d="M40.4112 13.9629C40.5031 15.1426 39.6271 16.1669 38.4474 16.2588C37.2748 16.3506 36.2434 15.4747 36.1516 14.295C36.0598 13.1223 36.9357 12.091 38.1083 11.9991C39.2881 11.9073 40.3123 12.7832 40.4042 13.9559L40.4112 13.9629Z" fill="#EFE2FF"/>
</svg>
