<svg width="634" height="250" viewBox="0 0 634 250" fill="none" xmlns="http://www.w3.org/2000/svg">
<path d="M398.414 191.148C390.59 191.118 387.35 187.934 387.182 179.737C386.974 169.596 387.133 159.448 387.145 149.304C387.147 146.977 387.035 144.68 386.325 142.431C384.762 137.479 381.444 135.087 376.262 135.26C368.594 135.516 362.469 141.834 362.465 149.485C362.46 158.036 362.435 166.586 362.449 175.137C362.458 180.535 361.171 186.476 368.48 189.261C361.323 190.816 354.572 190.476 347.431 189.456C353.808 186.249 352.53 180.648 352.595 175.615C352.713 166.486 352.793 157.353 352.656 148.225C352.522 139.268 348.985 135.189 342.154 135.19C335.52 135.192 326.967 141.664 327.597 149.407C328.3 158.045 327.74 166.785 327.74 175.481C327.739 184.014 327.745 184.014 333.805 189.768C326.541 190.811 319.865 190.464 312.647 189.516C321.012 185.194 318.185 177.746 318.404 171.353C318.692 162.957 318.498 154.543 318.473 146.138C318.454 139.353 318.429 139.353 312.894 136.331C312.6 134.987 313.589 134.56 314.526 134.182C315.869 133.642 317.223 133.098 318.618 132.727C321.275 132.021 323.502 129.212 326.194 129.914C329.388 130.746 326.507 134.815 328.637 136.647C346.28 125.976 352.259 126.345 361.579 138.688C363.044 138.565 363.685 137.3 364.569 136.416C367.171 133.811 370.153 131.851 373.614 130.562C385.568 126.107 395.975 132.871 396.323 145.611C396.588 155.315 396.423 165.03 396.448 174.74C396.452 176.334 396.427 177.929 396.459 179.522C396.581 185.8 397.334 186.691 403.504 187.701C403.127 190.578 400.635 190.431 398.414 191.148Z" fill="#823AAF"/>
<path d="M243.62 138.118C238.475 139.498 235.68 143.23 232.434 147.063C234.538 148.533 234.303 150.582 234.243 152.773C233.997 161.605 233.92 170.443 233.88 179.279C233.861 183.703 235.128 187.484 240.786 188.572C240.458 188.982 240.13 189.391 239.802 189.8C232.914 189.8 226.026 189.8 219.138 189.8C226.379 185.69 224.213 178.914 224.465 172.991C224.631 169.099 224.497 165.194 224.497 160.531C220.813 164.701 218.717 169.108 216.095 173.141C212.927 178.014 209.686 182.775 204.972 186.369C192.204 196.103 173.95 191.751 167.148 177.162C160.807 163.562 161.503 150.344 170.591 138.204C177.533 128.93 191.26 126.445 201.217 132.056C205.722 134.595 208.585 138.351 210.228 143.285C211.289 146.472 210.486 148.107 207.411 149.244C200.345 151.854 193.327 154.602 186.698 158.231C186.063 158.579 185.437 158.948 184.834 159.347C180.111 162.472 174.645 165.373 176.021 172.317C177.269 178.615 185.005 184.244 191.872 184.61C198.392 184.957 203.837 182.538 208.118 177.756C214.645 170.467 219.553 162.054 223.734 153.288C225.628 149.315 224.777 144.746 224.11 140.449C223.683 137.694 220.585 137.837 218.458 135.892C222.647 132.745 227.424 131.646 231.785 129.807C233.059 129.269 233.588 130.901 233.669 132.123C233.792 133.971 233.857 135.823 233.946 137.65C235.952 138.139 236.361 136.551 237.197 135.729C240.809 132.181 244.862 129.55 250.086 129.216C252.581 129.057 254.723 129.728 255.97 132.064C256.935 133.874 256.868 135.697 255.506 137.336C253.861 139.315 251.744 139.262 249.543 138.61C247.714 138.067 245.877 137.758 243.62 138.118ZM196.899 149.555C198.672 148.483 201.388 148.131 200.949 145.19C200.216 140.273 198.364 135.934 193.501 133.692C189.25 131.732 183.269 132.893 179.907 136.655C172.997 144.386 172.203 153.64 173.376 164.213C180.169 156.965 188.15 153.247 196.899 149.555Z" fill="#823AAF"/>
<path d="M525.767 202.928L530.985 206.842L539.682 210.321V206.407L536.204 201.624L530.985 199.885L525.767 202.928Z" fill="#F8F2FF"/>
<path d="M471.474 186.08C473.27 182.733 473.173 179.37 473.192 176.056C473.248 166.353 473.234 156.65 473.221 146.946C473.214 142.411 473.644 137.617 466.036 136.437C471.238 132.821 476.012 131.77 480.31 129.834C481.55 129.276 482.101 131.001 482.239 132.162C482.442 133.876 482.497 135.607 482.612 137.291C484.057 137.904 484.545 136.713 485.195 136.106C487.124 134.305 489.338 132.961 491.631 131.708C502.159 125.956 517.79 129.408 518.03 147.184C518.181 158.334 518.066 169.488 518.156 180.639C518.2 186.053 519.327 191.25 521.683 196.173C527.462 208.247 544.8 215.091 556.796 202.44C557.493 201.705 558.176 200.94 558.966 200.316C561.222 198.534 563.62 198.369 565.506 200.655C567.574 203.163 565.731 204.994 563.795 206.426C547.449 218.52 517.959 213.447 510.925 190.049C509.541 185.447 508.758 180.778 508.82 175.938C508.925 167.684 508.814 159.428 508.876 151.173C508.898 148.246 508.549 145.384 507.764 142.59C506.485 138.032 503.294 135.427 498.7 135.034C491.115 134.386 481.659 141.912 482.311 149.445C483.108 158.645 482.459 167.967 482.507 177.236C482.531 181.918 481.302 187.245 488.415 189.052C481.181 190.921 474.473 190.232 467.497 190.111C468.17 187.36 470.295 187.551 471.474 186.08Z" fill="#823AAF"/>
<path d="M118.5 112C109.3 110 96.6667 130.5 91.5 141L109 142.5L121 126.5C124 122.5 127.7 114 118.5 112Z" fill="white"/>
<path d="M143 114C140.6 109.2 125.333 110.667 118 112L100 123L94 136.5L95 159.5L104 157.5L136.5 136C139.667 130.667 145.4 118.8 143 114Z" fill="white"/>
<path d="M90.4228 133.286C99.758 113.472 118.623 105.203 141.534 110.63C153.036 113.355 156.378 118.004 155.285 129.771C155.216 130.52 154.965 131.176 154.2 131.507C152.839 131.672 152.556 130.653 152.198 129.696C148.48 119.771 141.24 114.116 130.817 113.07C119.285 111.914 110.087 116.333 103.865 126.229C94.8426 140.578 95.7513 162.356 105.772 175.992C118.56 193.394 142.681 191.595 153.852 172.439C154.609 171.141 154.714 169.268 156.56 168.796C157.909 169.234 157.861 170.263 157.697 171.294C157.514 172.438 157.039 173.575 157.065 174.706C157.283 184.172 150.933 187.284 143.282 189.684C117.007 197.924 91.1884 182.97 87.4931 157.058C86.3499 149.041 87.1417 141.151 90.4228 133.286Z" fill="#823AAF"/>
<path d="M454.262 138.059C463.286 150.235 464.193 163.125 458.271 176.386C453.865 186.252 445.776 191.365 434.891 191.452C423.845 191.54 415.591 186.386 410.813 176.604C405.002 164.705 405.658 152.658 412.604 141.368C421.724 126.546 440.896 125.041 454.262 138.059ZM451.661 160.939C451.758 154.932 450.937 149.075 448.501 143.546C445.909 137.662 442.137 133.175 435.074 132.813C427.763 132.439 423.2 136.53 420.653 142.646C415.355 155.365 415.859 168.109 422.219 180.396C424.902 185.581 429.486 188.254 435.382 188.028C441.071 187.81 445.13 184.876 447.762 179.831C450.723 174.154 451.774 168.095 451.661 160.939Z" fill="#823AAF"/>
<path d="M272.329 188.858C259.153 181.022 253.881 164.675 259.122 148.653C264.142 133.307 278.622 125.478 292.373 130.703C298.267 132.942 302.249 137.043 304.397 143.006C305.502 146.072 304.687 147.919 301.615 149.094C294.318 151.885 287.022 154.697 280.214 158.595C279.46 159.027 278.676 159.408 277.944 159.873C273.823 162.487 269.497 165.488 269.793 170.792C270.093 176.156 273.92 179.885 278.585 182.442C287.317 187.228 298.145 184.29 304.212 175.616C305.141 174.288 305.433 172.224 308.897 172.099C307.569 177.567 304.551 181.551 300.883 184.881C292.481 192.507 282.877 193.332 272.329 188.858ZM266.898 160.203C267.066 161.377 266.699 162.768 268.127 163.593C270.54 161.037 272.984 158.806 275.832 157.013C280.759 153.912 286.007 151.454 291.378 149.289C295.022 147.82 295.745 145.493 294.413 142.066C292.712 137.688 290.315 133.926 285.3 133.07C279.944 132.157 275.617 134.254 272.397 138.513C267.693 144.733 266.688 151.976 266.898 160.203Z" fill="#823AAF"/>
<path d="M573.97 187.845C575.123 188.716 575.185 189.891 574.14 189.92C568.053 190.088 561.959 190.002 555.739 189.541C566.74 182.484 568.108 170.203 572.577 159.888C579.08 144.879 584.608 129.448 590.596 114.215C591.253 112.545 591.518 110.048 593.875 110.187C595.885 110.306 596.02 112.662 596.654 114.216C601.469 126.02 606.354 137.797 610.983 149.674C612.408 153.33 614.206 153.655 617.098 151.527C620.861 148.759 623.264 145.421 622.012 140.429C621.586 138.73 621.805 137.247 623.687 136.485C625.422 135.783 626.87 136.387 627.999 137.635C630.054 139.908 630.237 142.554 629.162 145.342C626.87 151.282 621.915 154.18 616.399 156.34C608.739 159.34 600.487 159.271 592.527 160.714C588.953 161.362 585.435 162.062 582.018 163.312C573.679 166.361 570.819 173.286 569.504 181.172C568.976 184.339 570.082 186.934 573.97 187.845ZM583.391 159.231C589.544 156.736 596.416 157.33 603.193 155.179C599.044 144.975 595.124 135.339 591.204 125.702C590.813 125.744 590.422 125.787 590.031 125.83C585.443 137.545 580.854 149.259 575.857 162.019C579 160.835 580.871 160.13 583.391 159.231Z" fill="#BD9A47"/>
<path d="M544.285 127.549C544.285 143.164 544.224 158.359 544.318 173.552C544.354 179.508 543.358 186.023 550.629 189.7C543.659 189.7 536.689 189.7 528.545 189.7C536.001 185.034 535.004 178.311 535.033 171.987C535.106 156.503 535.05 141.019 535.045 125.535C535.041 116.937 535.04 116.937 529.144 111.123C536.499 111.123 543.342 111.123 550.185 111.123C543.381 114.834 544.479 121.224 544.285 127.549Z" fill="#BD9A47"/>
<path d="M622.287 176.155C624.713 181.791 627.156 186.998 633.593 189.28C625.203 190.395 617.213 190.449 609.207 190.014C609.207 189.157 609.094 188.713 609.224 188.625C614.385 185.095 614.697 184.427 612.449 178.416C610.287 172.632 607.874 166.942 605.609 161.308C612.878 157.124 614.416 157.602 617.181 164.28C618.787 168.16 620.488 172.001 622.287 176.155Z" fill="#BD9A47"/>
<path d="M18.5134 151.554C23.1879 132.197 29.6059 113.661 38.7418 96.1442C54.1354 66.6296 74.8706 41.775 102.858 23.3409C110.93 18.0239 119.448 13.516 128.375 9.79947C129.319 9.40619 130.231 8.81177 131.338 8.88133C131.689 9.60134 131.076 9.85948 130.746 10.1729C119.518 20.8373 113.29 34.1445 110.162 49.0874C107.927 59.7649 107.004 70.6456 105.223 81.3949C104.924 83.1969 104.612 83.9142 102.551 83.2365C94.2275 80.4994 86.0547 81.8337 77.9775 84.5003C77.4791 84.6649 76.9859 84.8452 76.5025 85.1351C79.0019 84.6728 81.505 84.2385 84.0507 84.2269C86.6199 84.2152 89.1599 84.5375 91.6632 85.0722C95.4099 85.8724 98.7546 87.5186 101.714 89.9787C102.782 90.8664 103.062 91.808 102.713 93.149C100.55 101.473 97.1985 109.234 91.9921 116.132C91.2218 117.153 90.605 118.3 88.9889 116.98C83.3443 112.37 76.7051 110.844 69.5645 111.015C68.2524 111.046 66.9388 111.019 65.6175 111.275C67.7309 111.819 69.8675 111.997 71.9257 112.64C77.1159 114.264 81.3643 117.21 84.8189 121.399C85.9109 122.723 85.5929 123.582 84.4619 124.618C79.7828 128.902 74.7806 132.752 69.4671 136.221C68.0669 137.135 67.3559 136.505 66.3927 135.629C62.2062 131.824 57.2965 129.927 51.5798 130.291C53.2305 130.839 54.8996 131.325 56.4916 132.042C59.0393 133.19 61.0056 134.975 62.6193 137.233C63.781 138.859 63.6977 139.941 61.7864 140.969C57.3428 143.36 53.0452 146.008 48.7552 148.672C28.6512 161.157 17.8065 179.522 14.2837 202.589C13.8182 205.637 13.3656 208.687 12.8408 211.724C12.7091 212.487 12.7637 213.368 11.6636 214.333C11.2539 192.902 13.5283 172.182 18.5134 151.554ZM86.4791 60.1177C85.7493 59.4562 85.0414 59.5256 84.2482 60.0679C82.6795 61.1404 81.3321 62.4162 80.3365 64.04C79.3691 65.6178 79.9064 66.8509 81.7951 67.0199C83.4263 67.166 85.11 67.1845 86.7248 66.9481C89.2359 66.5805 90.0116 64.4027 88.4729 62.3722C87.9319 61.6584 87.304 61.0104 86.4791 60.1177Z" fill="url(#paint0_linear_160_29)" fill-opacity="0.7"/>
<path d="M6.54323 93.937C7.8462 88.9476 9.52341 84.2756 11.1704 79.5895C11.759 77.9145 12.7536 77.5572 14.2784 77.951C17.3663 78.7485 19.6791 80.4988 21.0869 83.4271C20.5845 79.8115 19.1004 76.6177 16.3865 74.2045C14.5925 72.6093 14.416 71.2772 15.497 69.1718C18.1466 64.0108 20.7986 58.8639 23.8544 53.9233C24.9301 52.1841 25.9392 52.1647 27.5088 53.1853C31.4009 55.7159 33.0402 59.5446 33.933 63.861C34.0814 58.617 32.5906 53.8816 29.3317 49.8032C28.1593 48.3361 28.2463 47.3851 29.3538 45.9224C34.5604 39.0463 40.4328 32.8206 46.9014 27.1254C48.2736 25.9172 49.1624 26.0984 50.2678 27.3556C52.9302 30.3837 54.2013 33.887 54.229 37.8985C55.0921 33.7681 55.0663 29.5893 53.8069 25.581C52.9776 22.9418 53.6634 21.6029 55.8705 20.0967C70.1574 10.3468 85.758 4.0183 102.863 1.34199C111.915 -0.0742201 120.976 -0.390052 130.086 0.492397C130.568 0.539147 131.163 0.355613 131.463 1.02464C131.156 1.8857 130.296 1.87272 129.639 2.08562C108.228 9.02021 89.4458 20.4364 72.8248 35.4948C42.997 62.5184 24.138 96.198 12.9238 134.492C8.98191 147.953 6.49731 161.706 4.90315 175.619C4.34742 180.47 4.23217 185.37 3.90191 190.247C3.8584 190.889 4.10355 191.606 3.33773 192.3C2.21286 190.494 2.58677 188.46 2.44615 186.649C1.28693 171.72 -0.121483 156.798 0.00835949 141.8C0.14833 125.634 2.26952 109.729 6.54323 93.937Z" fill="url(#paint1_linear_160_29)" fill-opacity="0.7"/>
<path d="M52.7858 61.8819C74.6539 34.1347 101.374 13.5542 135.319 3.24414C135.436 3.4392 135.553 3.63426 135.67 3.82933C134.302 4.37485 132.945 4.94874 131.565 5.46168C106.336 14.8376 85.0727 29.9906 67.044 49.8231C41.4396 77.9892 25.3341 111.102 16.1157 147.797C12.8294 160.879 10.6434 174.147 9.4174 187.563C8.58766 196.643 8.35931 205.764 9.40064 214.847C9.68941 217.366 9.84002 220.267 13.19 221.106C14.0475 221.32 14.0956 222.115 13.834 222.776C11.3843 228.964 11.5562 235.454 11.5575 241.929C11.5575 242.357 11.6297 242.846 10.9893 243.219C10.0649 242.654 10.2069 241.556 10.0654 240.722C7.73158 226.972 6.62669 213.138 6.70926 199.172C6.84596 176.045 10.4733 153.49 17.2065 131.418C24.9038 106.185 36.5063 82.9203 52.7858 61.8819Z" fill="url(#paint2_linear_160_29)" fill-opacity="0.7"/>
<path d="M124.71 239.045C134.954 238.161 144.974 236.76 155.055 236.744C169.682 236.721 184.019 238.67 197.536 244.741C199.789 245.753 202.005 246.839 204 248.484C203.208 248.968 202.752 248.407 202.279 248.169C190.999 242.511 178.972 239.926 166.452 238.955C155.942 238.139 145.57 239.116 135.167 240.274C127.692 241.105 120.198 241.787 112.68 242.162C109.558 242.317 106.704 243.621 103.714 244.343C91.9053 247.192 79.9392 248.809 67.8118 249.517C55.9059 250.212 44.0167 250 32.1302 249.392C26.4406 249.101 20.7332 248.819 15.0643 247.487C16.7518 247.487 18.4465 247.384 20.1255 247.503C35.0917 248.567 50.059 248.784 65.0482 247.947C77.8458 247.232 90.4712 245.505 102.886 242.095C99.7331 241.755 96.5904 241.418 93.4815 240.852C87.5134 239.766 81.7809 238.039 76.5963 234.755C67.3747 228.916 66.8053 221.397 75.1259 214.302C79.9701 210.172 85.7841 208.178 91.9116 206.969C102.667 204.847 113.424 204.543 124.146 207.178C127.977 208.119 131.613 209.567 134.778 211.985C139.979 215.957 140.928 221.678 137.274 227.121C133.813 232.277 128.574 235.105 123.178 237.701C122.298 238.124 121.393 238.494 120.054 239.085C121.843 239.085 123.176 239.085 124.71 239.045ZM128.613 231.977C130.909 230.379 133.106 228.667 134.797 226.402C138.308 221.699 137.489 216.889 132.633 213.56C131.323 212.661 129.94 211.911 128.469 211.305C123.316 209.182 117.929 208.354 112.387 208.201C102.918 207.938 93.566 208.487 84.59 211.876C80.3589 213.474 76.6151 215.814 73.8243 219.45C70.8994 223.261 71.1525 226.514 74.5465 229.875C76.4425 231.752 78.6802 233.139 81.0462 234.328C88.8331 238.241 97.2663 239.222 105.795 239.641C108.025 239.75 110.315 240.049 112.523 239.307C118.036 237.455 123.388 235.246 128.613 231.977Z" fill="#BD9A47" fill-opacity="0.7"/>
<defs>
<linearGradient id="paint0_linear_160_29" x1="61.5184" y1="25.7705" x2="87.5886" y2="108.821" gradientUnits="userSpaceOnUse">
<stop stop-color="#A166E6"/>
<stop offset="1" stop-color="#823AAF"/>
</linearGradient>
<linearGradient id="paint1_linear_160_29" x1="54.7479" y1="15.8129" x2="76.0854" y2="95.4905" gradientUnits="userSpaceOnUse">
<stop stop-color="#A166E6"/>
<stop offset="1" stop-color="#823AAF"/>
</linearGradient>
<linearGradient id="paint2_linear_160_29" x1="60.4127" y1="22.9774" x2="92.9396" y2="118.459" gradientUnits="userSpaceOnUse">
<stop stop-color="#A166E6"/>
<stop offset="1" stop-color="#823AAF"/>
</linearGradient>
</defs>
</svg>
