<svg width="691" height="317" viewBox="0 0 691 317" fill="none" xmlns="http://www.w3.org/2000/svg">
<path d="M183.801 123.713C199.484 116.297 215.504 111.542 232.632 110.413C224.573 119.96 213.433 124.241 202.375 128.298C191.177 132.407 179.64 135.59 167.31 139.475C184.047 142.462 197.259 133.365 212.088 129.511C211.665 133.692 208.979 133.775 206.996 134.55C193.039 140.005 178.857 144.963 166.208 153.265C164.119 154.636 162.117 156.146 159.981 157.438C151.624 162.494 146.812 169.846 145.246 179.469C144.978 181.118 144.943 183.225 142.781 183.984C140.417 183.075 141.277 181.351 141.634 179.784C143.305 172.457 147.931 165.488 147.946 158.385C147.96 151.506 143.326 144.746 142.299 137.412C141.134 129.087 142.729 120.953 143.691 111.456C131.339 130.75 123.695 150.745 117.408 171.482C114.054 169.804 115.033 167.954 115.506 166.273C128.118 121.437 152.429 84.2279 188.55 54.8372C223.408 26.4735 263.51 9.88686 307.673 2.88755C328.966 -0.487008 350.342 -0.82618 371.87 1.46461C397.412 4.18247 421.962 10.2742 445.59 20.2339C459.14 25.9456 471.76 33.3239 484.158 41.2089C492.57 46.5586 500.011 52.9892 507.421 59.5203C509.184 61.0749 510.792 61.8048 513.234 61.3439C518.014 60.4414 522.494 61.6592 526.599 64.219C530.987 66.9554 535.353 69.7266 539.482 73.1278C533.712 75.4405 528.357 72.7719 522.072 72.7735C525.611 76.8183 528.83 80.4277 531.974 84.101C552.449 108.024 567.124 134.99 574.696 165.673C574.776 165.996 574.922 166.305 574.98 166.631C575.262 168.208 576.243 170.297 574.055 170.911C571.702 171.57 571.528 169.087 571.238 167.655C569.811 160.605 567.317 153.893 564.911 147.162C559.787 132.826 552.928 119.361 544.223 106.79C535.593 108.383 528.319 103.634 519.983 101.34C520.763 104.438 522.883 105.702 524.458 107.21C532.002 114.432 537.927 123.158 546.613 129.398C553.655 134.458 558.618 149.835 556.765 156.746C556.313 156.746 555.595 156.947 555.409 156.717C548.233 147.848 539.522 139.972 536.847 128.165C536.596 127.061 536.203 125.855 535.501 125.007C529.79 118.115 524.061 111.23 516.844 105.463C519.34 115.906 523.237 126.103 521.05 136.9C518.675 137.176 518.113 136.056 517.574 135.057C511.076 123.009 504.543 110.967 504.199 96.7708C504.152 94.8547 503.635 93.1883 502.12 91.8871C491.104 82.4247 479.203 74.2551 466.136 67.4319C469.47 73.7621 469.396 81.2639 474.96 86.8573C479.707 91.6292 481.013 98.1919 479.938 105.418C472.069 101.754 466.417 92.6242 466.934 85.4661C467.68 75.1523 461.508 64.1805 452.382 59.8408C437.138 52.5914 421.22 47.2287 404.88 43.0705C403.597 42.7441 402.34 42.2463 399.873 43.0915C409.297 48.5257 413.959 58.4098 424.063 62.3627C433.001 65.8596 440.4 71.9775 446.892 79.0466C449.22 81.5815 451.323 84.36 452.124 88.1031C451.224 88.4352 450.494 88.9929 450.085 88.8141C437.405 83.2666 423.902 78.3239 416.53 65.7378C411.27 56.756 403.761 50.6618 396.177 44.1723C389.307 38.2942 380.964 38.7275 373.045 37.7271C361.483 36.2664 349.797 36.0025 338.124 36.4793C336.312 36.5533 334.495 36.5817 332.275 38.0525C338.82 40.9648 344.634 44.3374 351.323 45.9545C366.654 49.661 381.285 55.0551 393.957 64.8059C395.881 66.2863 398.121 67.5611 398.705 70.1854C397.728 71.8569 396.335 71.4044 395.098 71.0884C378.73 66.9077 362.599 62.1727 349.365 50.8922C347.778 49.5395 346.113 49.0783 343.893 49.2386C331.997 50.0973 320.657 48.0871 310.265 41.9064C308.659 40.9515 307.004 40.1441 305.074 40.5898C284.613 45.3141 264.491 51.0137 244.504 61.6862C267.868 59.5348 289.878 56.5368 311.475 63.6864C311.155 66.7264 309.092 66.9774 307.507 67.6915C295.087 73.2841 282.141 73.9223 268.869 71.8763C258.839 70.3301 248.784 68.9457 238.726 67.589C236.438 67.2804 234.095 67.1336 231.925 68.4545C215.609 78.3844 200.686 90.0198 187.897 104.279C187.703 104.495 187.692 104.876 187.254 106.258C199.067 99.6618 212.303 100.996 223.877 95.333C233.307 90.7192 243.782 90.236 254.225 91.8219C255.416 92.0027 256.545 92.18 257.061 93.5214C257.098 95.3885 255.614 96.0029 254.264 96.5798C241.303 102.118 228.478 106.322 213.693 103.128C205.78 101.419 197.508 105.57 189.557 108.165C177.498 112.102 173.313 122.875 166.618 131.527C166.898 131.871 167.178 132.214 167.458 132.557C172.794 129.665 178.13 126.773 183.801 123.713ZM357.835 4.176C349.707 3.3605 341.578 3.00611 333.441 4.04708C331.619 4.28007 330.061 4.5584 328.925 6.50654C323.365 16.0426 315.252 23.1266 306.44 29.5547C302.54 32.3994 298.214 34.7549 294.221 38.9808C296.271 38.6662 297.407 38.5543 298.516 38.3122C317.413 34.185 336.437 31.3571 355.865 32.7193C358.198 32.8829 359.947 32.1663 361.581 30.4055C365.621 26.0521 370.63 23.2074 376.294 21.3659C384.419 18.7236 392.742 17.312 401.245 16.8197C407.592 16.4523 413.939 16.0872 420.286 15.721C400.28 8.6394 379.794 4.96825 357.835 4.176ZM381.767 33.811C381.703 35.2136 382.873 34.779 383.528 34.8859C399.654 37.5191 415.529 41.1652 430.923 46.7148C433.031 47.4748 434.765 46.8439 436.652 46.0527C446.757 41.8143 457.301 41.1923 468.057 42.3722C471.885 42.7922 475.724 43.1092 481.012 43.6113C466.389 33.895 452.088 26.9311 437.368 20.6544C430.732 17.8251 425.776 17.2023 419.101 22.1286C408.498 29.9533 395.165 31.6505 381.767 33.811ZM265.626 16.9872C265.16 17.6608 264.557 18.2773 264.247 19.0167C259.244 30.9777 252.48 41.763 243.319 51.0187C239.505 54.8721 235.926 58.9584 231.248 64.0099C233.199 63.271 233.81 63.1281 234.331 62.8289C246.065 56.0989 258.304 50.4807 271.1 46.0874C272.406 45.6391 273.546 45.0138 274.221 43.7638C283.112 27.2971 297.941 18.1158 314.388 10.841C317.937 9.27088 321.771 8.07351 324.587 4.95121C304.581 6.18616 285.194 10.2168 265.626 16.9872ZM215.572 40.0683C210.738 43.3155 205.946 46.6282 201.053 49.7835C198.442 51.4671 197.356 53.5337 197.272 56.762C197.12 62.5598 196.27 68.3369 195.796 74.1295C195.248 80.8219 193.095 87.1998 191.831 93.8854C198.747 88.1289 205.123 82.0854 212.156 76.8182C213.164 76.0629 213.41 74.9511 213.504 73.7312C214.054 66.547 217.224 60.3637 220.872 54.3321C228.483 41.7444 238.974 31.8945 250.452 22.8732C238.287 27.0266 227.221 33.3177 215.572 40.0683ZM156.407 139.171C156.47 139.617 156.305 140.255 157.032 140.223C157.272 140.213 157.574 139.854 157.715 139.585C162.276 130.86 168.19 123.02 173.802 114.984C174.823 113.521 174.92 111.954 174.997 110.266C175.74 93.9759 178.884 78.3042 187.058 63.9383C187.658 62.8838 188.492 61.7939 188.024 59.7275C175.997 70.6589 164.747 81.6386 155.255 94.3114C153.912 96.1044 154.321 98.1315 154.797 100.073C157.912 112.793 158.979 125.591 156.407 139.171ZM515.526 86.1035C523.909 88.7527 530.762 94.2059 538.266 98.6076C535.338 94.2544 532.41 89.9846 528.939 86.2153C519.246 75.6925 510.635 64.3128 494.629 61.6788C479.34 59.1626 464.327 54.83 448.75 52.5427C449.171 54.1 450.344 54.1799 451.17 54.5689C466.253 61.6769 480.629 69.9529 493.815 80.2108C495.029 81.1552 496.314 81.7463 497.9 81.8122C503.786 82.057 509.323 83.8322 515.526 86.1035ZM247.896 65.4183C266.11 68.1314 284.316 73.1711 302.573 65.5833C284.451 60.6227 266.243 62.2429 247.896 65.4183ZM189.175 88.7641C192.709 79.164 192.799 69.0749 193.481 59.0494C185.088 73.9897 178.591 89.4674 178.73 108.362C180.272 103.092 181.471 99.1297 182.585 95.1434C183.658 91.3035 184.475 87.384 185.714 83.6008C186.915 79.9326 187.001 75.7228 190.914 73.1165C188.244 83.2387 185.574 93.3609 182.647 104.459C187.365 99.7792 186.973 94.1819 189.175 88.7641ZM392.201 25.8246C388.124 26.9463 384.048 28.068 379.972 29.1897C392.852 28.9285 405.299 27.1513 416.218 19.716C400.647 20.3773 384.823 19.5677 370.732 28.1268C375.793 27.3866 380.723 26.0083 385.727 24.9994C390.677 24.0014 395.504 21.9286 402.132 22.1911C398.504 24.7999 395.637 24.9035 392.201 25.8246ZM200.831 120.398C191.33 123.698 181.947 127.242 172.644 133.629C187.363 131.584 216.801 120.131 222.474 114.373C215.152 115.846 208.276 117.676 200.831 120.398ZM315.076 18.5684C317.118 16.6031 319.16 14.6382 320.912 11.6237C306.786 17.7456 293.432 23.7733 284.223 35.9802C291.754 31.5254 297.402 24.2737 305.989 21.3202C300.411 26.8955 293.7 31.1391 288.651 37.2382C298.133 32.3494 306.607 26.061 315.076 18.5684ZM226.401 63.3533C238.152 53.0282 248.717 41.7261 255.997 27.7144C244.467 39.2472 232.902 50.7441 224.434 64.9098C224.944 64.5185 225.453 64.1271 226.401 63.3533ZM253.39 25.1868C240.107 34.5523 228.795 45.6522 222.084 60.8065C232.889 47.6718 244.42 35.2028 256.295 23.0302C255.498 23.6229 254.701 24.2156 253.39 25.1868ZM445.378 47.8215C457.41 50.7087 478.073 50.6193 483.162 47.587C478.122 46.9258 473.198 45.8159 468.258 45.7385C460.476 45.6166 452.48 43.6397 445.378 47.8215ZM163.628 151.066C167.524 148.71 171.421 146.355 175.317 143.999C170.229 144.356 164.629 140.853 160.54 143.867C156.716 146.686 155.395 152.136 153.57 156.694C153.916 156.931 154.263 157.169 154.609 157.406C157.417 155.427 160.225 153.449 163.628 151.066ZM481.181 52.0077C478.556 52.4284 475.931 52.849 472.296 53.4316C482.445 55.7645 491.507 57.8475 501.389 60.1189C493.944 50.7078 490.144 49.1883 481.181 52.0077ZM152.104 143.136C155.802 129.178 155.39 115.344 150.36 101.65C150.899 115.631 151.438 129.613 152.104 143.136ZM146.163 140.553C146.578 143.166 147.323 145.668 148.4 147.772C148.4 135.982 148.4 124.001 148.4 112.02C144.921 121.135 144.858 130.395 146.163 140.553ZM364.007 56.7946C370.767 60.6594 377.998 63.1031 385.773 63.9857C377.55 57.8012 368.373 53.8849 357.483 51.3258C359.296 54.3434 361.539 55.1553 364.007 56.7946ZM520.85 97.9279C523.31 98.907 525.741 99.9679 528.238 100.842C530.706 101.707 533.241 102.382 535.746 103.141C528.483 95.41 519.982 90.3524 508.896 87.7318C512.816 90.374 516.433 91.5824 518.603 94.7552C517.173 95.9828 515.994 94.2125 514.292 95.1514C516.55 96.1184 518.354 96.8913 520.85 97.9279ZM228.476 100.915C235.539 100.421 242.075 98.2599 248.245 94.9006C238.608 94.1557 229.483 95.5626 221.199 100.949C223.335 100.949 225.47 100.949 228.476 100.915ZM511.478 115.306C513.235 119.143 514.291 123.36 517.865 127.461C517.803 118.721 514.734 111.922 512.06 104.582C510.894 106.58 513.26 108.39 511.669 109.845C509.273 108.866 510.478 106.134 508.484 104.532C508.968 108.39 510.021 111.504 511.478 115.306ZM430.227 69.2807C429.623 69.2037 429.019 69.1267 428.415 69.0498C428.651 70.9288 427.845 73.2398 429.697 74.5181C434.317 77.7078 439.03 80.8019 445.523 82.7768C440.952 76.8089 435.994 73.0276 430.227 69.2807ZM329.654 45.1916C332.314 45.808 334.973 46.0591 338.625 45.4314C333.452 41.5178 329.123 39.5072 324.192 44.0506C325.709 44.3649 327.3 44.6942 329.654 45.1916ZM522.139 65.4627C519.884 64.6085 517.628 63.7853 514.72 65.308C518.742 68.6524 522.853 69.6946 527.781 69.6115C526.324 67.4871 524.572 66.609 522.139 65.4627ZM551.95 147.336C552.104 147.364 552.288 147.456 552.403 147.402C552.523 147.346 552.676 147.121 552.646 147.018C551.449 142.852 550.519 138.552 547.046 135.106C544.143 141.098 549.217 143.515 551.95 147.336Z" fill="#BD9A47"/>
<path d="M393.147 288.838C383.269 288.799 379.179 284.78 378.966 274.432C378.704 261.63 378.904 248.818 378.919 236.011C378.923 233.074 378.781 230.174 377.884 227.334C375.911 221.083 371.722 218.064 365.18 218.282C355.5 218.605 347.767 226.581 347.762 236.24C347.756 247.035 347.724 257.83 347.742 268.625C347.754 275.439 346.129 282.94 355.356 286.456C346.321 288.419 337.798 287.99 328.782 286.702C336.833 282.653 335.219 275.583 335.302 269.228C335.45 257.703 335.551 246.173 335.378 234.65C335.209 223.341 330.744 218.192 322.12 218.194C313.745 218.196 302.947 226.367 303.743 236.142C304.631 247.047 303.924 258.081 303.923 269.059C303.922 279.831 303.929 279.831 311.58 287.096C302.409 288.412 293.981 287.975 284.87 286.778C295.43 281.322 291.861 271.918 292.137 263.847C292.5 253.247 292.256 242.626 292.225 232.014C292.2 223.449 292.168 223.449 285.181 219.634C284.81 217.937 286.058 217.398 287.242 216.921C288.936 216.24 290.646 215.552 292.407 215.084C295.761 214.192 298.573 210.647 301.971 211.532C306.004 212.583 302.366 217.72 305.056 220.033C327.329 206.561 334.877 207.026 346.643 222.609C348.493 222.454 349.303 220.858 350.418 219.741C353.703 216.453 357.468 213.979 361.837 212.35C376.928 206.727 390.066 215.266 390.506 231.35C390.841 243.6 390.632 255.865 390.664 268.123C390.669 270.136 390.638 272.149 390.677 274.161C390.832 282.087 391.782 283.212 399.571 284.487C399.096 288.119 395.95 287.933 393.147 288.838Z" fill="#823AAF"/>
<path d="M161.401 231.245C162.279 225.535 158.839 224.474 157.009 224.657C156.57 224.67 155.728 225.76 155.362 226.304V268.575V276.261L155.911 275.712C157.009 274.614 159.205 270.222 161.401 268.575V231.245Z" fill="#F8F2FF"/>
<path d="M166.342 219.167C150.531 205.991 138.893 208.187 136.148 211.481L146.579 215.873C154.923 216.751 168.721 228.316 174.577 233.989L174.028 225.754L166.342 219.167Z" fill="#F8F2FF"/>
<path d="M197.725 221.89C191.23 223.633 187.702 228.344 183.603 233.182C186.26 235.039 185.964 237.625 185.887 240.392C185.577 251.542 185.479 262.699 185.429 273.855C185.405 279.439 187.004 284.213 194.147 285.587C193.733 286.103 193.319 286.62 192.905 287.136C184.21 287.136 175.514 287.136 166.818 287.136C175.96 281.947 173.225 273.393 173.543 265.915C173.753 261.002 173.583 256.072 173.583 250.185C168.932 255.45 166.286 261.013 162.976 266.106C158.977 272.257 154.885 278.267 148.933 282.805C132.815 295.093 109.771 289.599 101.183 271.182C93.1772 254.012 94.0564 237.325 105.529 221.999C114.293 210.291 131.624 207.154 144.193 214.238C149.88 217.443 153.495 222.184 155.569 228.413C156.909 232.436 155.896 234.501 152.013 235.936C143.093 239.231 134.233 242.701 125.864 247.282C125.063 247.721 124.272 248.187 123.51 248.691C117.548 252.636 110.648 256.299 112.385 265.065C113.96 273.016 123.727 280.122 132.396 280.584C140.627 281.022 147.501 277.969 152.906 271.932C161.145 262.729 167.342 252.108 172.62 241.042C175.012 236.025 173.936 230.258 173.095 224.833C172.556 221.355 168.645 221.535 165.96 219.08C171.248 215.107 177.278 213.719 182.784 211.397C184.392 210.719 185.06 212.779 185.163 214.322C185.318 216.655 185.4 218.992 185.512 221.3C188.044 221.917 188.561 219.912 189.617 218.875C194.176 214.394 199.293 211.074 205.888 210.652C209.039 210.451 211.743 211.299 213.316 214.247C214.535 216.532 214.451 218.834 212.73 220.904C210.655 223.401 207.981 223.335 205.203 222.511C202.893 221.826 200.574 221.435 197.725 221.89ZM138.743 236.328C140.981 234.975 144.409 234.532 143.855 230.818C142.929 224.611 140.592 219.133 134.453 216.303C129.086 213.829 121.535 215.293 117.29 220.043C108.567 229.804 107.564 241.487 109.046 254.834C117.621 245.684 127.696 240.99 138.743 236.328Z" fill="#823AAF"/>
<path d="M553.924 303.711L560.512 308.651L571.491 313.043V308.102L567.099 302.064L560.512 299.868L553.924 303.711Z" fill="#F8F2FF"/>
<path d="M485.381 282.44C487.649 278.214 487.526 273.969 487.55 269.785C487.621 257.536 487.604 245.285 487.587 233.035C487.579 227.309 488.121 221.258 478.517 219.767C485.083 215.202 491.11 213.875 496.537 211.432C498.102 210.727 498.798 212.905 498.972 214.371C499.229 216.534 499.297 218.72 499.443 220.845C501.267 221.62 501.883 220.116 502.704 219.349C505.139 217.076 507.934 215.38 510.829 213.798C524.12 206.536 543.853 210.893 544.156 233.336C544.347 247.412 544.202 261.493 544.316 275.57C544.371 282.405 545.794 288.966 548.769 295.181C556.064 310.425 577.952 319.064 593.097 303.093C593.976 302.166 594.839 301.2 595.837 300.412C598.684 298.162 601.712 297.954 604.092 300.84C606.703 304.006 604.376 306.318 601.932 308.126C581.297 323.394 544.066 316.989 535.186 287.451C533.44 281.641 532.451 275.746 532.529 269.636C532.662 259.216 532.522 248.793 532.6 238.372C532.628 234.676 532.187 231.063 531.197 227.535C529.581 221.781 525.553 218.493 519.753 217.997C510.177 217.179 498.24 226.679 499.063 236.19C500.068 247.804 499.249 259.573 499.31 271.274C499.341 277.186 497.789 283.911 506.769 286.192C497.637 288.551 489.167 287.681 480.361 287.529C481.21 284.055 483.893 284.297 485.381 282.44Z" fill="#823AAF"/>
<path d="M4.32107 215.789C16.1064 190.775 39.922 180.336 68.8469 187.188C83.3678 190.628 87.5864 196.497 86.207 211.352C86.1191 212.298 85.8029 213.126 84.8369 213.544C83.1184 213.752 82.762 212.466 82.3093 211.258C77.6158 198.728 68.4749 191.589 55.3169 190.269C40.7587 188.808 29.1466 194.387 21.291 206.881C9.90097 224.996 11.0481 252.49 23.6982 269.704C39.8427 291.673 70.2945 289.403 84.3972 265.219C85.353 263.58 85.4857 261.215 87.8168 260.62C89.5193 261.173 89.4594 262.472 89.2513 263.773C89.0205 265.217 88.421 266.653 88.454 268.081C88.7296 280.031 80.7132 283.959 71.053 286.989C37.8826 297.393 5.28772 278.514 0.622524 245.8C-0.820701 235.68 0.178838 225.719 4.32107 215.789Z" fill="#823AAF"/>
<path d="M463.651 221.815C475.044 237.187 476.189 253.46 468.713 270.201C463.15 282.657 452.938 289.111 439.197 289.221C425.252 289.332 414.831 282.826 408.799 270.476C401.464 255.455 402.292 240.246 411.061 225.993C422.574 207.281 446.778 205.381 463.651 221.815ZM460.369 250.7C460.491 243.117 459.455 235.723 456.379 228.742C453.106 221.314 448.345 215.649 439.427 215.193C430.197 214.72 424.437 219.885 421.221 227.606C414.533 243.663 415.17 259.752 423.199 275.264C426.586 281.81 432.373 285.184 439.816 284.899C446.999 284.624 452.123 280.92 455.446 274.55C459.184 267.384 460.511 259.735 460.369 250.7Z" fill="#823AAF"/>
<path d="M233.97 285.947C217.335 276.055 210.68 255.417 217.296 235.19C223.634 215.816 241.914 205.933 259.274 212.529C266.715 215.355 271.742 220.532 274.454 228.06C275.85 231.932 274.821 234.263 270.941 235.746C261.73 239.27 252.519 242.82 243.923 247.742C242.972 248.286 241.982 248.768 241.058 249.354C235.855 252.655 230.394 256.443 230.768 263.14C231.147 269.911 235.978 274.618 241.868 277.847C252.891 283.889 266.561 280.179 274.221 269.229C275.394 267.553 275.762 264.947 280.135 264.79C278.459 271.693 274.649 276.722 270.017 280.926C259.41 290.553 247.286 291.595 233.97 285.947ZM227.113 249.772C227.325 251.254 226.862 253.009 228.665 254.051C231.71 250.824 234.797 248.007 238.392 245.744C244.612 241.829 251.237 238.726 258.018 235.993C262.618 234.138 263.531 231.201 261.85 226.874C259.702 221.347 256.676 216.597 250.345 215.517C243.583 214.364 238.121 217.012 234.055 222.388C228.116 230.241 226.848 239.385 227.113 249.772Z" fill="#823AAF"/>
<path d="M614.778 284.669C616.233 285.768 616.311 287.251 614.993 287.288C607.308 287.5 599.615 287.392 591.762 286.809C605.65 277.9 607.378 262.396 613.02 249.373C621.228 230.425 628.207 210.945 635.767 191.714C636.596 189.605 636.932 186.454 639.907 186.629C642.445 186.778 642.615 189.753 643.415 191.715C649.494 206.617 655.661 221.485 661.505 236.479C663.304 241.094 665.574 241.504 669.225 238.818C673.976 235.324 677.009 231.11 675.429 224.808C674.89 222.662 675.167 220.791 677.544 219.829C679.734 218.942 681.562 219.704 682.987 221.28C685.581 224.15 685.813 227.49 684.455 231.01C681.562 238.509 675.306 242.168 668.342 244.895C658.672 248.682 648.255 248.595 638.205 250.417C633.693 251.235 629.252 252.119 624.938 253.696C614.41 257.546 610.8 266.288 609.14 276.244C608.474 280.242 609.869 283.518 614.778 284.669ZM626.671 248.545C634.44 245.395 643.114 246.145 651.671 243.428C646.432 230.547 641.484 218.381 636.535 206.215C636.042 206.269 635.548 206.323 635.054 206.377C629.262 221.166 623.469 235.956 617.16 252.065C621.128 250.57 623.49 249.68 626.671 248.545Z" fill="#BD9A47"/>
<path d="M577.301 208.548C577.302 228.26 577.224 247.443 577.343 266.624C577.389 274.143 576.131 282.368 585.31 287.01C576.511 287.01 567.713 287.01 557.431 287.01C566.844 281.12 565.585 272.632 565.622 264.648C565.714 245.101 565.644 225.553 565.636 206.005C565.632 195.15 565.63 195.15 558.188 187.81C567.473 187.81 576.111 187.81 584.75 187.81C576.161 192.495 577.547 200.563 577.301 208.548Z" fill="#BD9A47"/>
<path d="M675.776 269.91C678.838 277.026 681.922 283.599 690.048 286.479C679.457 287.887 669.37 287.956 659.263 287.406C659.263 286.324 659.12 285.764 659.284 285.652C665.799 281.196 666.193 280.352 663.356 272.764C660.626 265.462 657.579 258.279 654.721 251.165C663.897 245.884 665.839 246.488 669.329 254.918C671.357 259.817 673.504 264.666 675.776 269.91Z" fill="#BD9A47"/>
</svg>
