<svg width="336" height="165" viewBox="0 0 336 165" fill="none" xmlns="http://www.w3.org/2000/svg">
<path d="M217.613 55.3142C200.776 77.6335 179.072 89.8102 151.069 88.8263C128.331 88.0274 109.91 77.9576 95.2957 60.7735C92.6187 57.6258 89.7946 54.4873 88.0622 50.6374C87.3857 49.134 86.7863 47.5743 86.3613 45.9842C85.7283 43.6159 85.7062 41.0964 88.1397 39.82C90.8812 38.3819 92.964 40.0184 94.4199 42.2853C98.3492 48.4031 103.428 53.379 109.305 57.5824C113.899 60.8684 118.745 63.563 124.678 64.2441C125.133 60.7509 123.669 58.5116 122.025 56.1499C112.464 42.4133 109.93 27.2613 113.277 10.9955C113.683 9.02349 113.952 6.89156 116.359 6.33925C118.962 5.74181 120.543 7.4431 121.517 9.41213C127.596 21.6961 138.519 29.1683 148.829 37.288C154.015 41.3727 154.931 47.785 157.135 53.4612C160.019 60.8895 164.754 64.3488 172.095 64.505C177.524 64.6206 182.313 62.6255 186.549 59.6987C192.116 55.8527 197.67 53.0062 204.65 55.0287C205.237 55.1991 206.09 55.173 206.578 54.8604C212.155 51.2842 217.661 47.612 220.558 40.6606C213.212 38.423 207.391 34.8083 205.379 27.2938C204.466 23.8854 202.139 19.4046 205.442 17.1202C208.511 14.9981 212.813 17.0412 216.153 19.1164C217.51 19.9602 218.73 21.0255 220.668 22.4827C217.555 14.0698 218.537 7.20375 225.034 1.52114C227.438 -0.582256 228.839 -0.557996 231.1 1.93035C238.313 9.86824 238.992 14.122 233.792 25.7788C238.657 25.4164 243.382 24.6266 247.894 26.8285C250.283 27.9944 251.176 29.0443 249.811 31.7632C245.442 40.4652 238.61 44.1797 228.97 42.3339C226.148 41.7935 224.641 42.4854 223.4 44.9799C221.697 48.4024 219.689 51.6734 217.613 55.3142ZM122.086 76.7851C153.478 94.0211 189.645 82.2577 208.403 59.5822C207.515 59.6962 206.55 60.142 205.942 59.8489C198.755 56.3878 193.338 60.1995 187.565 63.7644C180.617 68.0556 173.219 70.6425 164.823 67.4736C157.03 64.5324 154.013 57.9844 151.676 50.9289C149.844 45.3987 147.214 40.7498 142.221 37.3111C132.454 30.5834 123.14 23.2967 118.504 11.7428C118.32 11.2841 117.913 10.9805 117.356 11.333C113.644 26.2556 116.743 41.606 125.644 53.9907C128.845 58.4432 130.229 64.0589 134.595 67.986C114.342 70.7131 101.892 58.9335 90.3225 45.2779C97.319 59.1225 107.72 69.4403 122.086 76.7851ZM226.473 17.3832C226.473 14.3108 226.473 11.2385 226.473 7.55202C222.049 12.3888 221.969 16.0045 225.712 21.6845C225.971 20.3997 226.198 19.2736 226.473 17.3832ZM220.081 31.2719C218.747 26.5593 215.991 23.1526 210.464 21.194C213.666 25.4385 215.655 29.6857 220.081 31.2719ZM235.284 30.2663C233.789 31.2694 231.916 31.8975 230.913 34.3664C235.362 33.1419 239.048 31.9676 242.52 29.4466C240.049 28.8781 238.039 29.8017 235.284 30.2663ZM233.331 12.811C232.816 11.6601 232.792 10.2312 230.971 9.1765C230.971 13.3544 230.971 17.1821 230.971 21.5628C232.418 18.672 233.586 16.2957 233.331 12.811Z" fill="#BD9A47"/>
<path d="M191.369 151.363C186.561 151.344 184.57 149.388 184.467 144.351C184.339 138.119 184.437 131.883 184.444 125.649C184.446 124.219 184.377 122.808 183.94 121.425C182.98 118.382 180.941 116.913 177.756 117.019C173.044 117.176 169.28 121.058 169.278 125.76C169.275 131.015 169.259 136.269 169.268 141.524C169.274 144.841 168.483 148.492 172.974 150.203C168.576 151.159 164.428 150.95 160.039 150.323C163.958 148.352 163.173 144.911 163.212 141.818C163.285 136.208 163.334 130.595 163.25 124.986C163.167 119.482 160.994 116.975 156.796 116.976C152.719 116.977 147.464 120.954 147.851 125.712C148.283 131.021 147.939 136.391 147.939 141.735C147.938 146.979 147.942 146.979 151.666 150.515C147.202 151.156 143.099 150.943 138.664 150.36C143.804 147.704 142.067 143.127 142.202 139.198C142.378 134.039 142.259 128.869 142.244 123.703C142.232 119.534 142.217 119.534 138.815 117.677C138.635 116.851 139.243 116.588 139.819 116.357C140.644 116.025 141.476 115.69 142.333 115.462C143.966 115.028 145.335 113.302 146.988 113.733C148.951 114.245 147.181 116.745 148.49 117.871C159.332 111.314 163.006 111.54 168.733 119.125C169.633 119.05 170.028 118.273 170.571 117.729C172.17 116.129 174.002 114.924 176.129 114.132C183.475 111.394 189.87 115.551 190.084 123.38C190.247 129.343 190.145 135.313 190.161 141.28C190.163 142.259 190.148 143.239 190.167 144.219C190.243 148.077 190.705 148.624 194.497 149.245C194.265 151.013 192.734 150.922 191.369 151.363Z" fill="#823AAF"/>
<path d="M78.564 123.329C78.9915 120.55 77.3169 120.033 76.4262 120.122C76.2124 120.128 75.8027 120.659 75.6245 120.924V141.5V145.241L75.8917 144.974C76.4262 144.439 77.4951 142.302 78.564 141.5V123.329Z" fill="#F8F2FF"/>
<path d="M80.9689 117.449C73.2728 111.036 67.6076 112.105 66.2715 113.708L71.3488 115.846C75.4106 116.273 82.1269 121.903 84.9773 124.664L84.71 120.656L80.9689 117.449Z" fill="#F8F2FF"/>
<path d="M96.2457 118.775C93.0838 119.623 91.3667 121.917 89.3716 124.272C90.6648 125.175 90.5206 126.434 90.4832 127.781C90.3325 133.209 90.2848 138.64 90.2606 144.07C90.2485 146.788 91.0271 149.112 94.5039 149.78C94.3025 150.032 94.1009 150.283 93.8994 150.535C89.6668 150.535 85.4341 150.535 81.2014 150.535C85.651 148.009 84.3197 143.845 84.4749 140.205C84.5769 137.813 84.4942 135.414 84.4942 132.548C82.2301 135.111 80.9422 137.819 79.3309 140.298C77.3846 143.292 75.3927 146.217 72.4956 148.426C64.6497 154.408 53.4326 151.733 49.2524 142.769C45.3555 134.411 45.7835 126.288 51.3679 118.828C55.6341 113.129 64.0698 111.602 70.1881 115.05C72.9565 116.61 74.7161 118.918 75.7257 121.95C76.3777 123.909 75.8845 124.914 73.9945 125.612C69.6527 127.216 65.3399 128.905 61.2665 131.135C60.8762 131.349 60.4914 131.575 60.1205 131.821C57.2185 133.741 53.8597 135.524 54.7051 139.791C55.4718 143.661 60.226 147.12 64.446 147.345C68.4523 147.558 71.7981 146.072 74.4293 143.134C78.4399 138.654 81.4564 133.484 84.0253 128.097C85.1896 125.656 84.6661 122.848 84.2568 120.208C83.9943 118.515 82.0903 118.602 80.7835 117.408C83.3574 115.474 86.2929 114.798 88.9727 113.668C89.7556 113.337 90.0807 114.34 90.1307 115.091C90.2062 116.227 90.2462 117.365 90.3007 118.488C91.5334 118.788 91.7848 117.812 92.2988 117.307C94.5183 115.127 97.0087 113.51 100.219 113.305C101.753 113.207 103.069 113.62 103.835 115.055C104.428 116.167 104.387 117.287 103.55 118.295C102.539 119.511 101.238 119.478 99.8858 119.078C98.7613 118.744 97.6324 118.554 96.2457 118.775ZM67.5351 125.803C68.6245 125.145 70.2932 124.929 70.0236 123.121C69.573 120.1 68.4351 117.433 65.447 116.056C62.8345 114.851 59.1589 115.564 57.0928 117.876C52.8467 122.627 52.3584 128.314 53.0799 134.811C57.2538 130.357 62.1582 128.072 67.5351 125.803Z" fill="#823AAF"/>
<path d="M269.63 158.602L272.837 161.007L278.181 163.145V160.74L276.043 157.801L272.837 156.732L269.63 158.602Z" fill="#F8F2FF"/>
<path d="M236.266 148.249C237.37 146.192 237.31 144.125 237.322 142.089C237.356 136.126 237.347 130.163 237.339 124.2C237.335 121.413 237.599 118.467 232.924 117.742C236.121 115.52 239.054 114.874 241.696 113.685C242.458 113.342 242.796 114.402 242.881 115.115C243.006 116.168 243.04 117.232 243.11 118.267C243.998 118.644 244.298 117.912 244.698 117.538C245.883 116.432 247.243 115.606 248.653 114.836C255.122 111.302 264.728 113.422 264.875 124.347C264.968 131.198 264.897 138.052 264.953 144.905C264.98 148.232 265.672 151.425 267.12 154.451C270.672 161.871 281.326 166.076 288.698 158.302C289.126 157.851 289.546 157.38 290.031 156.997C291.418 155.902 292.891 155.8 294.05 157.205C295.321 158.746 294.188 159.871 292.999 160.752C282.954 168.183 264.832 165.066 260.509 150.688C259.659 147.86 259.178 144.99 259.216 142.016C259.28 136.944 259.212 131.871 259.25 126.798C259.264 124.999 259.049 123.24 258.567 121.523C257.78 118.722 255.82 117.121 252.997 116.88C248.336 116.482 242.525 121.106 242.925 125.736C243.415 131.389 243.016 137.118 243.046 142.814C243.061 145.691 242.305 148.965 246.677 150.075C242.231 151.223 238.109 150.8 233.822 150.726C234.235 149.035 235.541 149.153 236.266 148.249Z" fill="#823AAF"/>
<path d="M19.3571 102.725C13.7036 101.496 5.94014 114.094 2.76514 120.546L13.5192 121.468L20.8934 111.636C22.737 109.178 25.0107 103.954 19.3571 102.725Z" fill="white"/>
<path d="M34.4126 103.954C32.9378 101.005 23.5562 101.906 19.0497 102.725L7.98838 109.485L4.30127 117.781L4.91579 131.915L10.4464 130.686L30.4183 117.474C32.3642 114.196 35.8875 106.904 34.4126 103.954Z" fill="white"/>
<path d="M2.10334 115.806C7.84002 103.63 19.4326 98.548 33.5122 101.883C40.5805 103.558 42.6339 106.415 41.9625 113.646C41.9197 114.106 41.7658 114.509 41.2956 114.713C40.4591 114.814 40.2856 114.188 40.0652 113.6C37.7806 107.501 33.3311 104.025 26.9263 103.383C19.8399 102.672 14.1875 105.388 10.3637 111.469C4.81944 120.287 5.37782 133.67 11.5354 142.049C19.394 152.743 34.2168 151.638 41.0815 139.866C41.5468 139.068 41.6113 137.917 42.746 137.627C43.5748 137.897 43.5456 138.529 43.4443 139.162C43.332 139.865 43.0402 140.564 43.0562 141.259C43.1904 147.076 39.2883 148.988 34.5861 150.463C18.4399 155.527 2.57387 146.338 0.303022 130.414C-0.399488 125.488 0.0870518 120.639 2.10334 115.806Z" fill="#823AAF"/>
<path d="M225.689 118.739C231.234 126.221 231.792 134.143 228.153 142.291C225.445 148.355 220.474 151.496 213.785 151.55C206.997 151.604 201.925 148.437 198.989 142.425C195.418 135.114 195.821 127.71 200.09 120.772C205.693 111.664 217.475 110.739 225.689 118.739ZM224.091 132.799C224.15 129.108 223.646 125.509 222.149 122.111C220.556 118.495 218.238 115.737 213.897 115.515C209.404 115.285 206.601 117.799 205.035 121.558C201.78 129.374 202.09 137.205 205.998 144.756C207.647 147.942 210.463 149.584 214.087 149.446C217.583 149.312 220.077 147.509 221.694 144.408C223.514 140.92 224.16 137.197 224.091 132.799Z" fill="#823AAF"/>
<path d="M113.888 149.956C105.791 145.141 102.551 135.095 105.772 125.249C108.857 115.819 117.755 111.008 126.205 114.218C129.827 115.594 132.274 118.114 133.594 121.779C134.273 123.663 133.772 124.798 131.884 125.52C127.4 127.235 122.917 128.963 118.733 131.359C118.27 131.624 117.788 131.858 117.338 132.144C114.806 133.751 112.147 135.595 112.329 138.854C112.514 142.15 114.865 144.442 117.732 146.013C123.098 148.954 129.752 147.148 133.481 141.818C134.051 141.002 134.231 139.734 136.359 139.657C135.543 143.018 133.689 145.465 131.434 147.512C126.271 152.198 120.369 152.705 113.888 149.956ZM110.55 132.347C110.653 133.068 110.428 133.923 111.306 134.43C112.788 132.859 114.29 131.488 116.04 130.387C119.068 128.481 122.293 126.971 125.593 125.64C127.833 124.737 128.277 123.307 127.459 121.201C126.413 118.511 124.94 116.199 121.858 115.673C118.567 115.112 115.908 116.401 113.929 119.018C111.039 122.84 110.421 127.291 110.55 132.347Z" fill="#823AAF"/>
<path d="M299.251 149.333C299.96 149.868 299.998 150.59 299.356 150.608C295.615 150.711 291.87 150.659 288.048 150.375C294.808 146.039 295.649 138.492 298.395 132.153C302.391 122.93 305.788 113.447 309.468 104.087C309.872 103.06 310.035 101.526 311.483 101.611C312.719 101.684 312.801 103.132 313.191 104.087C316.15 111.341 319.152 118.578 321.996 125.876C322.872 128.123 323.977 128.323 325.754 127.015C328.067 125.314 329.543 123.263 328.774 120.195C328.512 119.151 328.647 118.24 329.803 117.772C330.87 117.34 331.759 117.711 332.453 118.478C333.716 119.875 333.828 121.501 333.167 123.214C331.759 126.865 328.714 128.645 325.324 129.973C320.618 131.817 315.547 131.774 310.655 132.661C308.458 133.059 306.297 133.489 304.197 134.257C299.072 136.131 297.315 140.386 296.507 145.232C296.183 147.179 296.862 148.773 299.251 149.333ZM305.04 131.749C308.822 130.216 313.044 130.581 317.21 129.259C314.659 122.989 312.251 117.067 309.842 111.145C309.602 111.171 309.361 111.197 309.121 111.224C306.301 118.423 303.482 125.622 300.411 133.463C302.343 132.735 303.492 132.302 305.04 131.749Z" fill="#BD9A47"/>
<path d="M281.009 112.281C281.009 121.876 280.972 131.213 281.029 140.55C281.052 144.21 280.44 148.214 284.908 150.473C280.625 150.473 276.342 150.473 271.337 150.473C275.919 147.606 275.306 143.475 275.324 139.588C275.369 130.073 275.335 120.558 275.331 111.043C275.329 105.759 275.328 105.759 271.705 102.186C276.225 102.186 280.43 102.186 284.635 102.186C280.454 104.467 281.129 108.394 281.009 112.281Z" fill="#BD9A47"/>
<path d="M328.943 142.15C330.434 145.613 331.935 148.813 335.891 150.215C330.735 150.9 325.825 150.934 320.905 150.666C320.905 150.139 320.836 149.867 320.915 149.812C324.087 147.643 324.279 147.233 322.898 143.539C321.569 139.985 320.086 136.488 318.694 133.026C323.161 130.455 324.106 130.749 325.805 134.852C326.792 137.237 327.837 139.597 328.943 142.15Z" fill="#BD9A47"/>
<path d="M251.767 74.3711C258.924 73.272 266.1 73.1116 273.263 74.4814C275.83 74.9724 278.296 75.7335 280.458 77.0186C282.25 78.0838 283.391 79.4313 283.715 80.957C284.041 82.4946 283.511 84.0864 282.232 85.5693C280.009 88.1476 276.739 89.617 273.421 90.8848C273.453 90.8841 273.486 90.8844 273.519 90.8838C280.265 90.4302 286.929 89.7065 293.617 89.6982C303.327 89.6863 312.874 90.6935 321.889 93.8447C323.383 94.367 324.897 94.942 326.271 95.8232L327.027 96.3096L326.215 96.6963C325.435 97.0669 324.807 96.598 324.68 96.5479C317.281 93.6589 309.378 92.3344 301.128 91.8359C294.215 91.4183 287.386 91.9187 280.504 92.5146C275.553 92.9434 270.586 93.2948 265.602 93.4883C264.616 93.5266 263.663 93.7058 262.696 93.9277C261.745 94.1461 260.744 94.4155 259.743 94.6035C251.904 96.0759 243.964 96.9108 235.921 97.2764C228.025 97.6353 220.143 97.5252 212.271 97.2119C208.513 97.0624 204.701 96.9158 200.91 96.2227L201 95.2314C202.083 95.2314 203.248 95.1778 204.376 95.2402C214.263 95.7872 224.149 95.8983 234.048 95.4678C241.327 95.1512 248.515 94.4471 255.598 93.1396C254.667 93.0454 253.736 92.9408 252.811 92.8096C248.837 92.2465 244.985 91.3469 241.488 89.623C238.407 88.1044 236.568 86.2739 236.373 84.1963C236.177 82.1043 237.674 80.074 240.46 78.2246C243.754 76.0383 247.686 74.9978 251.767 74.3711ZM265.378 75.999C259.131 75.864 253.005 76.1484 247.14 77.8721V77.8711C244.385 78.6806 241.996 79.8536 240.231 81.6436C239.307 82.5808 238.984 83.3519 239.045 84.0176C239.107 84.6915 239.577 85.4309 240.659 86.2646C241.86 87.1898 243.29 87.8837 244.836 88.4883C249.905 90.4709 255.414 90.9751 261.047 91.1904C262.57 91.2486 263.983 91.3923 265.353 91.0342C268.978 90.086 272.48 88.9599 275.892 87.2998C277.402 86.4809 278.795 85.6315 279.854 84.5264C280.948 83.3859 281.286 82.3227 281.087 81.4062C280.884 80.4729 280.09 79.5234 278.548 78.7002C277.708 78.2521 276.821 77.8773 275.876 77.5742C272.527 76.5002 269.014 76.0776 265.378 75.999Z" fill="#BD9A47" stroke="#BD9A47"/>
</svg>
